<mxfile host="app.diagrams.net" modified="2023-11-27T03:33:43.144Z" agent="Mozilla/5.0 (Windows NT 10.0; Win64; x64) AppleWebKit/537.36 (KHTML, like Gecko) Chrome/119.0.0.0 Safari/537.36" etag="PNeo1s62jFEUfUKL2Msk" version="22.1.4" type="github" pages="6">
  <diagram name="实体关系图" id="CBUP-HR3QqebyW29lq4L">
    <mxGraphModel dx="2073" dy="1593" grid="1" gridSize="10" guides="1" tooltips="1" connect="1" arrows="1" fold="1" page="1" pageScale="1" pageWidth="827" pageHeight="1169" math="0" shadow="0">
      <root>
        <mxCell id="0" />
        <mxCell id="1" parent="0" />
        <mxCell id="kV2-ElPKzwBOEJ-UU_A2-1" value="" style="rounded=0;whiteSpace=wrap;html=1;fillStyle=dashed;dashed=1;" parent="1" vertex="1">
          <mxGeometry x="-279" y="-70" width="499" height="440" as="geometry" />
        </mxCell>
        <mxCell id="kV2-ElPKzwBOEJ-UU_A2-2" style="edgeStyle=orthogonalEdgeStyle;rounded=0;orthogonalLoop=1;jettySize=auto;html=1;exitX=1;exitY=0.75;exitDx=0;exitDy=0;entryX=0.25;entryY=0;entryDx=0;entryDy=0;" parent="1" source="kV2-ElPKzwBOEJ-UU_A2-4" target="kV2-ElPKzwBOEJ-UU_A2-22" edge="1">
          <mxGeometry relative="1" as="geometry">
            <mxPoint x="231" y="69.88235294117658" as="targetPoint" />
            <Array as="points">
              <mxPoint x="-35" y="80" />
            </Array>
          </mxGeometry>
        </mxCell>
        <mxCell id="kV2-ElPKzwBOEJ-UU_A2-3" value="ETH" style="edgeLabel;html=1;align=center;verticalAlign=middle;resizable=0;points=[];" parent="kV2-ElPKzwBOEJ-UU_A2-2" vertex="1" connectable="0">
          <mxGeometry x="0.2177" y="-1" relative="1" as="geometry">
            <mxPoint as="offset" />
          </mxGeometry>
        </mxCell>
        <mxCell id="kV2-ElPKzwBOEJ-UU_A2-4" value="传感器1-1&lt;br style=&quot;font-size: 16px;&quot;&gt;GPS-RTK" style="rounded=0;whiteSpace=wrap;html=1;fillColor=#f8cecc;strokeColor=#b85450;fontSize=16;" parent="1" vertex="1">
          <mxGeometry x="-249" y="35" width="120" height="60" as="geometry" />
        </mxCell>
        <mxCell id="kV2-ElPKzwBOEJ-UU_A2-5" style="edgeStyle=orthogonalEdgeStyle;rounded=0;orthogonalLoop=1;jettySize=auto;html=1;exitX=0.5;exitY=1;exitDx=0;exitDy=0;entryX=0;entryY=0.25;entryDx=0;entryDy=0;" parent="1" source="kV2-ElPKzwBOEJ-UU_A2-7" target="kV2-ElPKzwBOEJ-UU_A2-22" edge="1">
          <mxGeometry relative="1" as="geometry" />
        </mxCell>
        <mxCell id="kV2-ElPKzwBOEJ-UU_A2-6" value="ETH" style="edgeLabel;html=1;align=center;verticalAlign=middle;resizable=0;points=[];" parent="kV2-ElPKzwBOEJ-UU_A2-5" vertex="1" connectable="0">
          <mxGeometry x="0.2521" y="-1" relative="1" as="geometry">
            <mxPoint x="1" as="offset" />
          </mxGeometry>
        </mxCell>
        <mxCell id="kV2-ElPKzwBOEJ-UU_A2-7" value="传感器1-2&lt;br style=&quot;font-size: 16px;&quot;&gt;BD-RTK" style="rounded=0;whiteSpace=wrap;html=1;fillColor=#f8cecc;strokeColor=#b85450;fontSize=16;" parent="1" vertex="1">
          <mxGeometry x="-249" y="120" width="120" height="60" as="geometry" />
        </mxCell>
        <mxCell id="kV2-ElPKzwBOEJ-UU_A2-8" style="edgeStyle=orthogonalEdgeStyle;rounded=0;orthogonalLoop=1;jettySize=auto;html=1;exitX=1;exitY=0.5;exitDx=0;exitDy=0;" parent="1" source="kV2-ElPKzwBOEJ-UU_A2-9" target="kV2-ElPKzwBOEJ-UU_A2-22" edge="1">
          <mxGeometry relative="1" as="geometry" />
        </mxCell>
        <mxCell id="kV2-ElPKzwBOEJ-UU_A2-9" value="传感器2-1&lt;br style=&quot;font-size: 15px;&quot;&gt;机械式Lidar" style="rounded=0;whiteSpace=wrap;html=1;fillColor=#dae8fc;strokeColor=#6c8ebf;fontSize=15;" parent="1" vertex="1">
          <mxGeometry x="-249" y="280" width="120" height="60" as="geometry" />
        </mxCell>
        <mxCell id="kV2-ElPKzwBOEJ-UU_A2-10" style="edgeStyle=orthogonalEdgeStyle;rounded=0;orthogonalLoop=1;jettySize=auto;html=1;exitX=1;exitY=0.5;exitDx=0;exitDy=0;" parent="1" source="kV2-ElPKzwBOEJ-UU_A2-11" target="kV2-ElPKzwBOEJ-UU_A2-19" edge="1">
          <mxGeometry relative="1" as="geometry" />
        </mxCell>
        <mxCell id="kV2-ElPKzwBOEJ-UU_A2-11" value="传感器0-1&lt;br style=&quot;font-size: 15px;&quot;&gt;Camera 模组" style="rounded=0;whiteSpace=wrap;html=1;dashed=1;fillColor=#dae8fc;strokeColor=#6c8ebf;fontSize=15;" parent="1" vertex="1">
          <mxGeometry x="-249" y="-53" width="120" height="60" as="geometry" />
        </mxCell>
        <mxCell id="kV2-ElPKzwBOEJ-UU_A2-12" style="edgeStyle=orthogonalEdgeStyle;rounded=0;orthogonalLoop=1;jettySize=auto;html=1;exitX=1;exitY=0.5;exitDx=0;exitDy=0;entryX=0;entryY=0.5;entryDx=0;entryDy=0;" parent="1" source="kV2-ElPKzwBOEJ-UU_A2-13" target="kV2-ElPKzwBOEJ-UU_A2-4" edge="1">
          <mxGeometry relative="1" as="geometry" />
        </mxCell>
        <mxCell id="kV2-ElPKzwBOEJ-UU_A2-13" value="定位信号" style="ellipse;whiteSpace=wrap;html=1;align=center;fontStyle=4;" parent="1" vertex="1">
          <mxGeometry x="-439" y="45" width="100" height="40" as="geometry" />
        </mxCell>
        <mxCell id="kV2-ElPKzwBOEJ-UU_A2-14" style="edgeStyle=orthogonalEdgeStyle;rounded=0;orthogonalLoop=1;jettySize=auto;html=1;exitX=1;exitY=0.5;exitDx=0;exitDy=0;entryX=0;entryY=0.5;entryDx=0;entryDy=0;" parent="1" source="kV2-ElPKzwBOEJ-UU_A2-15" target="kV2-ElPKzwBOEJ-UU_A2-7" edge="1">
          <mxGeometry relative="1" as="geometry" />
        </mxCell>
        <mxCell id="kV2-ElPKzwBOEJ-UU_A2-15" value="定位信号" style="ellipse;whiteSpace=wrap;html=1;align=center;fontStyle=4;" parent="1" vertex="1">
          <mxGeometry x="-439" y="130" width="100" height="40" as="geometry" />
        </mxCell>
        <mxCell id="kV2-ElPKzwBOEJ-UU_A2-16" style="edgeStyle=orthogonalEdgeStyle;rounded=0;orthogonalLoop=1;jettySize=auto;html=1;exitX=1;exitY=0.5;exitDx=0;exitDy=0;entryX=0;entryY=0.5;entryDx=0;entryDy=0;" parent="1" source="kV2-ElPKzwBOEJ-UU_A2-17" target="kV2-ElPKzwBOEJ-UU_A2-9" edge="1">
          <mxGeometry relative="1" as="geometry" />
        </mxCell>
        <mxCell id="kV2-ElPKzwBOEJ-UU_A2-17" value="点云数据" style="ellipse;whiteSpace=wrap;html=1;align=center;fontStyle=4;" parent="1" vertex="1">
          <mxGeometry x="-439" y="290" width="100" height="40" as="geometry" />
        </mxCell>
        <mxCell id="kV2-ElPKzwBOEJ-UU_A2-18" style="edgeStyle=orthogonalEdgeStyle;rounded=0;orthogonalLoop=1;jettySize=auto;html=1;exitX=0.75;exitY=1;exitDx=0;exitDy=0;entryX=0.75;entryY=0;entryDx=0;entryDy=0;" parent="1" source="kV2-ElPKzwBOEJ-UU_A2-19" target="kV2-ElPKzwBOEJ-UU_A2-22" edge="1">
          <mxGeometry relative="1" as="geometry" />
        </mxCell>
        <mxCell id="kV2-ElPKzwBOEJ-UU_A2-19" value="图像处理模块&lt;br&gt;（外购）" style="whiteSpace=wrap;html=1;align=center;dashed=1;fillColor=#dae8fc;strokeColor=#6c8ebf;fontSize=15;" parent="1" vertex="1">
          <mxGeometry x="-60" y="-53" width="100" height="60" as="geometry" />
        </mxCell>
        <mxCell id="kV2-ElPKzwBOEJ-UU_A2-20" style="edgeStyle=orthogonalEdgeStyle;rounded=0;orthogonalLoop=1;jettySize=auto;html=1;exitX=1;exitY=0.25;exitDx=0;exitDy=0;strokeWidth=4;startArrow=classicThin;startFill=1;strokeColor=#FF0000;entryX=0;entryY=0.75;entryDx=0;entryDy=0;" parent="1" source="kV2-ElPKzwBOEJ-UU_A2-22" target="kV2-ElPKzwBOEJ-UU_A2-74" edge="1">
          <mxGeometry relative="1" as="geometry" />
        </mxCell>
        <mxCell id="kV2-ElPKzwBOEJ-UU_A2-21" value="SIL0-100Mb&lt;br style=&quot;font-size: 16px;&quot;&gt;ETH" style="edgeLabel;html=1;align=center;verticalAlign=middle;resizable=0;points=[];fontSize=16;" parent="kV2-ElPKzwBOEJ-UU_A2-20" vertex="1" connectable="0">
          <mxGeometry x="0.4401" y="-2" relative="1" as="geometry">
            <mxPoint x="-44" y="6" as="offset" />
          </mxGeometry>
        </mxCell>
        <mxCell id="kV2-ElPKzwBOEJ-UU_A2-22" value="智能驾驶机箱&lt;br&gt;（自研）" style="whiteSpace=wrap;html=1;align=center;fillColor=#dae8fc;strokeColor=#6c8ebf;verticalAlign=top;fontSize=15;" parent="1" vertex="1">
          <mxGeometry x="-60" y="190" width="100" height="150" as="geometry" />
        </mxCell>
        <mxCell id="kV2-ElPKzwBOEJ-UU_A2-23" value="安全计算模组" style="whiteSpace=wrap;html=1;align=center;verticalAlign=top;fontSize=20;fillColor=#f5f5f5;fontColor=#333333;strokeColor=#666666;" parent="1" vertex="1">
          <mxGeometry x="430" y="-50" width="440" height="400" as="geometry" />
        </mxCell>
        <mxCell id="kV2-ElPKzwBOEJ-UU_A2-24" style="edgeStyle=orthogonalEdgeStyle;rounded=0;orthogonalLoop=1;jettySize=auto;html=1;exitX=0;exitY=0.25;exitDx=0;exitDy=0;entryX=0.75;entryY=1;entryDx=0;entryDy=0;strokeWidth=2;startArrow=classic;startFill=1;strokeColor=#b85450;fillColor=#f8cecc;" parent="1" source="kV2-ElPKzwBOEJ-UU_A2-26" target="kV2-ElPKzwBOEJ-UU_A2-65" edge="1">
          <mxGeometry relative="1" as="geometry">
            <Array as="points">
              <mxPoint x="1010" y="321" />
              <mxPoint x="1010" y="230" />
              <mxPoint x="702" y="230" />
            </Array>
          </mxGeometry>
        </mxCell>
        <mxCell id="kV2-ElPKzwBOEJ-UU_A2-25" value="SIL0-CAN" style="edgeLabel;html=1;align=center;verticalAlign=middle;resizable=0;points=[];fontSize=16;" parent="kV2-ElPKzwBOEJ-UU_A2-24" vertex="1" connectable="0">
          <mxGeometry x="0.2878" y="3" relative="1" as="geometry">
            <mxPoint x="140" y="47" as="offset" />
          </mxGeometry>
        </mxCell>
        <mxCell id="kV2-ElPKzwBOEJ-UU_A2-26" value="&lt;font style=&quot;font-size: 20px;&quot;&gt;线控转向机&lt;br&gt;要求SIL1+人工&lt;/font&gt;" style="whiteSpace=wrap;html=1;align=center;fontSize=16;fillColor=#f8cecc;strokeColor=#b85450;" parent="1" vertex="1">
          <mxGeometry x="1145" y="289" width="260" height="130" as="geometry" />
        </mxCell>
        <mxCell id="kV2-ElPKzwBOEJ-UU_A2-27" value="" style="endArrow=none;dashed=1;html=1;rounded=0;fillColor=#d80073;strokeColor=#A50040;strokeWidth=3;" parent="1" edge="1">
          <mxGeometry width="50" height="50" relative="1" as="geometry">
            <mxPoint x="371" y="780" as="sourcePoint" />
            <mxPoint x="371" y="-280" as="targetPoint" />
          </mxGeometry>
        </mxCell>
        <mxCell id="kV2-ElPKzwBOEJ-UU_A2-28" value="" style="endArrow=none;dashed=1;html=1;rounded=0;fillColor=#d80073;strokeColor=#A50040;strokeWidth=3;" parent="1" edge="1">
          <mxGeometry width="50" height="50" relative="1" as="geometry">
            <mxPoint x="970" y="770" as="sourcePoint" />
            <mxPoint x="960" y="-290" as="targetPoint" />
          </mxGeometry>
        </mxCell>
        <mxCell id="kV2-ElPKzwBOEJ-UU_A2-33" value="执行器1&lt;br style=&quot;font-size: 20px;&quot;&gt;应急制动系统" style="whiteSpace=wrap;html=1;align=center;fontSize=20;fillColor=#60a917;fontColor=#ffffff;strokeColor=#2D7600;fontStyle=1" parent="1" vertex="1">
          <mxGeometry x="1143" y="-90" width="270" height="80" as="geometry" />
        </mxCell>
        <mxCell id="kV2-ElPKzwBOEJ-UU_A2-34" style="edgeStyle=orthogonalEdgeStyle;rounded=0;orthogonalLoop=1;jettySize=auto;html=1;exitX=0.75;exitY=0;exitDx=0;exitDy=0;strokeWidth=4;startArrow=classic;startFill=1;fillColor=#d5e8d4;strokeColor=#bfe4aa;entryX=0.75;entryY=1;entryDx=0;entryDy=0;" parent="1" source="kV2-ElPKzwBOEJ-UU_A2-39" target="kV2-ElPKzwBOEJ-UU_A2-74" edge="1">
          <mxGeometry relative="1" as="geometry" />
        </mxCell>
        <mxCell id="kV2-ElPKzwBOEJ-UU_A2-35" value="SIL2-100Mb&lt;br style=&quot;font-size: 16px;&quot;&gt;ETH" style="edgeLabel;html=1;align=center;verticalAlign=middle;resizable=0;points=[];fontSize=16;" parent="kV2-ElPKzwBOEJ-UU_A2-34" vertex="1" connectable="0">
          <mxGeometry x="0.1152" relative="1" as="geometry">
            <mxPoint x="-14" y="-55" as="offset" />
          </mxGeometry>
        </mxCell>
        <mxCell id="kV2-ElPKzwBOEJ-UU_A2-36" style="edgeStyle=orthogonalEdgeStyle;rounded=0;orthogonalLoop=1;jettySize=auto;html=1;exitX=0.25;exitY=0;exitDx=0;exitDy=0;entryX=1;entryY=0.75;entryDx=0;entryDy=0;startArrow=classic;startFill=1;" parent="1" source="kV2-ElPKzwBOEJ-UU_A2-39" target="kV2-ElPKzwBOEJ-UU_A2-22" edge="1">
          <mxGeometry relative="1" as="geometry" />
        </mxCell>
        <mxCell id="kV2-ElPKzwBOEJ-UU_A2-37" value="1000MB&lt;br style=&quot;font-size: 16px;&quot;&gt;ETH" style="edgeLabel;html=1;align=center;verticalAlign=middle;resizable=0;points=[];fontSize=16;" parent="kV2-ElPKzwBOEJ-UU_A2-36" vertex="1" connectable="0">
          <mxGeometry x="-0.1933" y="4" relative="1" as="geometry">
            <mxPoint x="4" y="27" as="offset" />
          </mxGeometry>
        </mxCell>
        <mxCell id="kV2-ElPKzwBOEJ-UU_A2-38" style="edgeStyle=orthogonalEdgeStyle;rounded=0;orthogonalLoop=1;jettySize=auto;html=1;exitX=0.5;exitY=1;exitDx=0;exitDy=0;entryX=0.5;entryY=0;entryDx=0;entryDy=0;startArrow=classic;startFill=1;" parent="1" source="kV2-ElPKzwBOEJ-UU_A2-39" target="kV2-ElPKzwBOEJ-UU_A2-48" edge="1">
          <mxGeometry relative="1" as="geometry" />
        </mxCell>
        <mxCell id="kV2-ElPKzwBOEJ-UU_A2-39" value="整车网络-VCMS" style="whiteSpace=wrap;html=1;align=center;fontSize=15;fillColor=#d5e8d4;strokeColor=#82b366;" parent="1" vertex="1">
          <mxGeometry x="151" y="540" width="180" height="70" as="geometry" />
        </mxCell>
        <mxCell id="kV2-ElPKzwBOEJ-UU_A2-40" style="edgeStyle=orthogonalEdgeStyle;rounded=0;orthogonalLoop=1;jettySize=auto;html=1;exitX=1;exitY=0.5;exitDx=0;exitDy=0;entryX=0;entryY=0.5;entryDx=0;entryDy=0;strokeWidth=4;strokeColor=#bfe4aa;startArrow=classic;startFill=1;fillColor=#d5e8d4;" parent="1" source="kV2-ElPKzwBOEJ-UU_A2-41" target="kV2-ElPKzwBOEJ-UU_A2-39" edge="1">
          <mxGeometry relative="1" as="geometry" />
        </mxCell>
        <mxCell id="kV2-ElPKzwBOEJ-UU_A2-41" value="信号系统" style="whiteSpace=wrap;html=1;align=center;fontSize=15;fillColor=#60a917;fontColor=#ffffff;strokeColor=#2D7600;" parent="1" vertex="1">
          <mxGeometry x="-94" y="540" width="170" height="70" as="geometry" />
        </mxCell>
        <mxCell id="kV2-ElPKzwBOEJ-UU_A2-42" style="edgeStyle=orthogonalEdgeStyle;rounded=0;orthogonalLoop=1;jettySize=auto;html=1;exitX=0;exitY=0.5;exitDx=0;exitDy=0;entryX=1;entryY=0.5;entryDx=0;entryDy=0;strokeWidth=4;fillColor=#d5e8d4;strokeColor=#82b366;" parent="1" source="kV2-ElPKzwBOEJ-UU_A2-44" target="kV2-ElPKzwBOEJ-UU_A2-65" edge="1">
          <mxGeometry relative="1" as="geometry">
            <Array as="points">
              <mxPoint x="1080" y="203" />
              <mxPoint x="1080" y="165" />
            </Array>
          </mxGeometry>
        </mxCell>
        <mxCell id="kV2-ElPKzwBOEJ-UU_A2-43" value="SIL2-CAN" style="edgeLabel;html=1;align=center;verticalAlign=middle;resizable=0;points=[];fontSize=16;" parent="kV2-ElPKzwBOEJ-UU_A2-42" vertex="1" connectable="0">
          <mxGeometry x="0.021" y="1" relative="1" as="geometry">
            <mxPoint x="79" y="-5" as="offset" />
          </mxGeometry>
        </mxCell>
        <mxCell id="kV2-ElPKzwBOEJ-UU_A2-44" value="执行器2&lt;br style=&quot;font-size: 20px;&quot;&gt;无轨导向-第一轴" style="whiteSpace=wrap;html=1;align=center;fontSize=20;fillColor=#d5e8d4;strokeColor=#82b366;" parent="1" vertex="1">
          <mxGeometry x="1143" y="138" width="270" height="130" as="geometry" />
        </mxCell>
        <mxCell id="kV2-ElPKzwBOEJ-UU_A2-45" value="输入" style="rounded=0;whiteSpace=wrap;html=1;fontSize=30;fillColor=#ffe6cc;strokeColor=#d79b00;" parent="1" vertex="1">
          <mxGeometry x="-224" y="-220" width="430" height="60" as="geometry" />
        </mxCell>
        <mxCell id="kV2-ElPKzwBOEJ-UU_A2-46" value="计算" style="rounded=0;whiteSpace=wrap;html=1;fontSize=30;fillColor=#ffe6cc;strokeColor=#d79b00;" parent="1" vertex="1">
          <mxGeometry x="425" y="-220" width="430" height="60" as="geometry" />
        </mxCell>
        <mxCell id="kV2-ElPKzwBOEJ-UU_A2-47" value="输出" style="rounded=0;whiteSpace=wrap;html=1;fontSize=30;fillColor=#ffe6cc;strokeColor=#d79b00;" parent="1" vertex="1">
          <mxGeometry x="1060" y="-220" width="430" height="60" as="geometry" />
        </mxCell>
        <mxCell id="kV2-ElPKzwBOEJ-UU_A2-48" value="HMI" style="rounded=0;whiteSpace=wrap;html=1;fillColor=#dae8fc;strokeColor=#6c8ebf;fontSize=21;" parent="1" vertex="1">
          <mxGeometry x="151" y="690" width="120" height="60" as="geometry" />
        </mxCell>
        <mxCell id="kV2-ElPKzwBOEJ-UU_A2-49" value="循迹控制-性能-SIL0" style="rounded=0;whiteSpace=wrap;html=1;fontSize=16;fillColor=#f8cecc;strokeColor=#b85450;" parent="1" vertex="1">
          <mxGeometry x="-50" y="260" width="80" height="60" as="geometry" />
        </mxCell>
        <mxCell id="kV2-ElPKzwBOEJ-UU_A2-50" style="edgeStyle=orthogonalEdgeStyle;rounded=0;orthogonalLoop=1;jettySize=auto;html=1;exitX=0;exitY=0.75;exitDx=0;exitDy=0;entryX=0;entryY=0.75;entryDx=0;entryDy=0;strokeWidth=2;" parent="1" source="kV2-ElPKzwBOEJ-UU_A2-56" target="kV2-ElPKzwBOEJ-UU_A2-68" edge="1">
          <mxGeometry relative="1" as="geometry">
            <Array as="points">
              <mxPoint x="490" y="52" />
              <mxPoint x="490" y="277" />
            </Array>
          </mxGeometry>
        </mxCell>
        <mxCell id="kV2-ElPKzwBOEJ-UU_A2-51" value="SIL2-DO" style="edgeLabel;html=1;align=center;verticalAlign=middle;resizable=0;points=[];" parent="kV2-ElPKzwBOEJ-UU_A2-50" vertex="1" connectable="0">
          <mxGeometry x="-0.1362" relative="1" as="geometry">
            <mxPoint as="offset" />
          </mxGeometry>
        </mxCell>
        <mxCell id="kV2-ElPKzwBOEJ-UU_A2-52" style="edgeStyle=orthogonalEdgeStyle;rounded=0;orthogonalLoop=1;jettySize=auto;html=1;exitX=0;exitY=0.5;exitDx=0;exitDy=0;entryX=0;entryY=0.75;entryDx=0;entryDy=0;strokeWidth=2;" parent="1" source="kV2-ElPKzwBOEJ-UU_A2-56" target="kV2-ElPKzwBOEJ-UU_A2-71" edge="1">
          <mxGeometry relative="1" as="geometry">
            <Array as="points">
              <mxPoint x="450" y="37" />
              <mxPoint x="450" y="330" />
            </Array>
          </mxGeometry>
        </mxCell>
        <mxCell id="kV2-ElPKzwBOEJ-UU_A2-53" value="SIL2-DO" style="edgeLabel;html=1;align=center;verticalAlign=middle;resizable=0;points=[];" parent="kV2-ElPKzwBOEJ-UU_A2-52" vertex="1" connectable="0">
          <mxGeometry x="-0.2525" y="1" relative="1" as="geometry">
            <mxPoint as="offset" />
          </mxGeometry>
        </mxCell>
        <mxCell id="kV2-ElPKzwBOEJ-UU_A2-54" style="edgeStyle=orthogonalEdgeStyle;rounded=0;orthogonalLoop=1;jettySize=auto;html=1;exitX=1;exitY=0.5;exitDx=0;exitDy=0;entryX=0;entryY=0;entryDx=0;entryDy=0;strokeWidth=2;" parent="1" source="kV2-ElPKzwBOEJ-UU_A2-56" target="kV2-ElPKzwBOEJ-UU_A2-75" edge="1">
          <mxGeometry relative="1" as="geometry">
            <Array as="points">
              <mxPoint x="770" y="37" />
              <mxPoint x="770" y="86" />
            </Array>
          </mxGeometry>
        </mxCell>
        <mxCell id="kV2-ElPKzwBOEJ-UU_A2-55" value="SIL2-DO" style="edgeLabel;html=1;align=center;verticalAlign=middle;resizable=0;points=[];" parent="kV2-ElPKzwBOEJ-UU_A2-54" vertex="1" connectable="0">
          <mxGeometry x="-0.5403" y="-4" relative="1" as="geometry">
            <mxPoint x="13" y="19" as="offset" />
          </mxGeometry>
        </mxCell>
        <mxCell id="8dO7dVruccK_q2NAqXuD-4" style="edgeStyle=orthogonalEdgeStyle;rounded=0;orthogonalLoop=1;jettySize=auto;html=1;exitX=1;exitY=0.25;exitDx=0;exitDy=0;entryX=0;entryY=0.25;entryDx=0;entryDy=0;" parent="1" source="kV2-ElPKzwBOEJ-UU_A2-56" target="kV2-ElPKzwBOEJ-UU_A2-44" edge="1">
          <mxGeometry relative="1" as="geometry">
            <Array as="points">
              <mxPoint x="938" y="22" />
              <mxPoint x="938" y="170" />
            </Array>
          </mxGeometry>
        </mxCell>
        <mxCell id="kV2-ElPKzwBOEJ-UU_A2-56" value="STW-1" style="rounded=0;whiteSpace=wrap;html=1;fillColor=#d5e8d4;fontColor=default;strokeColor=#82b366;fontSize=15;" parent="1" vertex="1">
          <mxGeometry x="612" y="7" width="120" height="60" as="geometry" />
        </mxCell>
        <mxCell id="kV2-ElPKzwBOEJ-UU_A2-57" style="edgeStyle=orthogonalEdgeStyle;rounded=0;orthogonalLoop=1;jettySize=auto;html=1;exitX=0;exitY=0.913;exitDx=0;exitDy=0;entryX=0;entryY=0.25;entryDx=0;entryDy=0;strokeWidth=2;exitPerimeter=0;" parent="1" source="kV2-ElPKzwBOEJ-UU_A2-65" target="kV2-ElPKzwBOEJ-UU_A2-68" edge="1">
          <mxGeometry relative="1" as="geometry">
            <Array as="points">
              <mxPoint x="570" y="190" />
              <mxPoint x="570" y="252" />
              <mxPoint x="612" y="252" />
            </Array>
          </mxGeometry>
        </mxCell>
        <mxCell id="kV2-ElPKzwBOEJ-UU_A2-58" value="SIL2-DO" style="edgeLabel;html=1;align=center;verticalAlign=middle;resizable=0;points=[];" parent="kV2-ElPKzwBOEJ-UU_A2-57" vertex="1" connectable="0">
          <mxGeometry x="0.0737" y="-3" relative="1" as="geometry">
            <mxPoint as="offset" />
          </mxGeometry>
        </mxCell>
        <mxCell id="kV2-ElPKzwBOEJ-UU_A2-59" style="edgeStyle=orthogonalEdgeStyle;rounded=0;orthogonalLoop=1;jettySize=auto;html=1;entryX=0;entryY=0.25;entryDx=0;entryDy=0;strokeWidth=2;exitX=0;exitY=0.75;exitDx=0;exitDy=0;" parent="1" source="kV2-ElPKzwBOEJ-UU_A2-65" target="kV2-ElPKzwBOEJ-UU_A2-71" edge="1">
          <mxGeometry relative="1" as="geometry">
            <Array as="points">
              <mxPoint x="520" y="180" />
              <mxPoint x="520" y="310" />
              <mxPoint x="612" y="310" />
            </Array>
            <mxPoint x="610" y="160" as="sourcePoint" />
          </mxGeometry>
        </mxCell>
        <mxCell id="kV2-ElPKzwBOEJ-UU_A2-60" value="SIL2-DO" style="edgeLabel;html=1;align=center;verticalAlign=middle;resizable=0;points=[];" parent="kV2-ElPKzwBOEJ-UU_A2-59" vertex="1" connectable="0">
          <mxGeometry x="-0.2552" y="3" relative="1" as="geometry">
            <mxPoint as="offset" />
          </mxGeometry>
        </mxCell>
        <mxCell id="kV2-ElPKzwBOEJ-UU_A2-61" style="edgeStyle=orthogonalEdgeStyle;rounded=0;orthogonalLoop=1;jettySize=auto;html=1;entryX=0.5;entryY=1;entryDx=0;entryDy=0;startArrow=classic;startFill=1;strokeColor=#bfe4aa;strokeWidth=4;fillColor=#d5e8d4;" parent="1" source="kV2-ElPKzwBOEJ-UU_A2-65" target="kV2-ElPKzwBOEJ-UU_A2-56" edge="1">
          <mxGeometry relative="1" as="geometry" />
        </mxCell>
        <mxCell id="kV2-ElPKzwBOEJ-UU_A2-62" value="ETH" style="edgeLabel;html=1;align=center;verticalAlign=middle;resizable=0;points=[];" parent="kV2-ElPKzwBOEJ-UU_A2-61" vertex="1" connectable="0">
          <mxGeometry x="-0.0013" y="3" relative="1" as="geometry">
            <mxPoint x="3" y="-1" as="offset" />
          </mxGeometry>
        </mxCell>
        <mxCell id="kV2-ElPKzwBOEJ-UU_A2-63" style="edgeStyle=orthogonalEdgeStyle;rounded=0;orthogonalLoop=1;jettySize=auto;html=1;exitX=1;exitY=0.25;exitDx=0;exitDy=0;entryX=0;entryY=1;entryDx=0;entryDy=0;strokeWidth=2;" parent="1" source="kV2-ElPKzwBOEJ-UU_A2-65" target="kV2-ElPKzwBOEJ-UU_A2-75" edge="1">
          <mxGeometry relative="1" as="geometry">
            <Array as="points">
              <mxPoint x="770" y="150" />
              <mxPoint x="770" y="114" />
            </Array>
          </mxGeometry>
        </mxCell>
        <mxCell id="kV2-ElPKzwBOEJ-UU_A2-64" value="SIL2-DO" style="edgeLabel;html=1;align=center;verticalAlign=middle;resizable=0;points=[];" parent="kV2-ElPKzwBOEJ-UU_A2-63" vertex="1" connectable="0">
          <mxGeometry x="-0.415" relative="1" as="geometry">
            <mxPoint x="10" y="-20" as="offset" />
          </mxGeometry>
        </mxCell>
        <mxCell id="8dO7dVruccK_q2NAqXuD-5" style="edgeStyle=orthogonalEdgeStyle;rounded=0;orthogonalLoop=1;jettySize=auto;html=1;exitX=1;exitY=0.75;exitDx=0;exitDy=0;entryX=0;entryY=0;entryDx=0;entryDy=0;" parent="1" source="kV2-ElPKzwBOEJ-UU_A2-65" target="kV2-ElPKzwBOEJ-UU_A2-26" edge="1">
          <mxGeometry relative="1" as="geometry">
            <Array as="points">
              <mxPoint x="1050" y="180" />
              <mxPoint x="1050" y="289" />
            </Array>
          </mxGeometry>
        </mxCell>
        <mxCell id="kV2-ElPKzwBOEJ-UU_A2-65" value="STW-2" style="rounded=0;whiteSpace=wrap;html=1;fillColor=#d5e8d4;fontColor=default;strokeColor=#82b366;fontSize=15;" parent="1" vertex="1">
          <mxGeometry x="612" y="135" width="120" height="60" as="geometry" />
        </mxCell>
        <mxCell id="kV2-ElPKzwBOEJ-UU_A2-66" style="edgeStyle=orthogonalEdgeStyle;rounded=0;orthogonalLoop=1;jettySize=auto;html=1;exitX=1;exitY=0.5;exitDx=0;exitDy=0;entryX=0.5;entryY=1;entryDx=0;entryDy=0;strokeWidth=2;" parent="1" source="kV2-ElPKzwBOEJ-UU_A2-68" target="kV2-ElPKzwBOEJ-UU_A2-75" edge="1">
          <mxGeometry relative="1" as="geometry">
            <Array as="points">
              <mxPoint x="806" y="265" />
            </Array>
          </mxGeometry>
        </mxCell>
        <mxCell id="kV2-ElPKzwBOEJ-UU_A2-67" value="继电器电平" style="edgeLabel;html=1;align=center;verticalAlign=middle;resizable=0;points=[];" parent="kV2-ElPKzwBOEJ-UU_A2-66" vertex="1" connectable="0">
          <mxGeometry x="-0.6073" relative="1" as="geometry">
            <mxPoint x="31" y="-70" as="offset" />
          </mxGeometry>
        </mxCell>
        <mxCell id="kV2-ElPKzwBOEJ-UU_A2-68" value="安全继电器-1" style="rounded=0;whiteSpace=wrap;html=1;fillColor=#60a917;fontColor=#ffffff;strokeColor=#2D7600;" parent="1" vertex="1">
          <mxGeometry x="612" y="240" width="120" height="49" as="geometry" />
        </mxCell>
        <mxCell id="kV2-ElPKzwBOEJ-UU_A2-69" style="edgeStyle=orthogonalEdgeStyle;rounded=0;orthogonalLoop=1;jettySize=auto;html=1;exitX=1;exitY=0.5;exitDx=0;exitDy=0;entryX=1;entryY=1;entryDx=0;entryDy=0;strokeWidth=2;" parent="1" source="kV2-ElPKzwBOEJ-UU_A2-71" target="kV2-ElPKzwBOEJ-UU_A2-75" edge="1">
          <mxGeometry relative="1" as="geometry">
            <mxPoint x="740" y="-50" as="targetPoint" />
            <Array as="points">
              <mxPoint x="850" y="319" />
              <mxPoint x="850" y="114" />
            </Array>
          </mxGeometry>
        </mxCell>
        <mxCell id="kV2-ElPKzwBOEJ-UU_A2-70" value="继电器电平" style="edgeLabel;html=1;align=center;verticalAlign=middle;resizable=0;points=[];" parent="kV2-ElPKzwBOEJ-UU_A2-69" vertex="1" connectable="0">
          <mxGeometry x="-0.0872" relative="1" as="geometry">
            <mxPoint x="-60" y="43" as="offset" />
          </mxGeometry>
        </mxCell>
        <mxCell id="kV2-ElPKzwBOEJ-UU_A2-71" value="安全继电器-2" style="rounded=0;whiteSpace=wrap;html=1;fillColor=#60a917;fontColor=#ffffff;strokeColor=#2D7600;" parent="1" vertex="1">
          <mxGeometry x="612" y="299" width="120" height="41" as="geometry" />
        </mxCell>
        <mxCell id="kV2-ElPKzwBOEJ-UU_A2-72" style="edgeStyle=orthogonalEdgeStyle;rounded=0;orthogonalLoop=1;jettySize=auto;html=1;exitX=1;exitY=0.5;exitDx=0;exitDy=0;entryX=0;entryY=0.5;entryDx=0;entryDy=0;strokeColor=#bfe4aa;strokeWidth=4;fillColor=#d5e8d4;startArrow=classic;startFill=1;" parent="1" source="kV2-ElPKzwBOEJ-UU_A2-74" target="kV2-ElPKzwBOEJ-UU_A2-65" edge="1">
          <mxGeometry relative="1" as="geometry">
            <Array as="points">
              <mxPoint x="410" y="210" />
              <mxPoint x="410" y="165" />
            </Array>
          </mxGeometry>
        </mxCell>
        <mxCell id="kV2-ElPKzwBOEJ-UU_A2-73" value="ETH" style="edgeLabel;html=1;align=center;verticalAlign=middle;resizable=0;points=[];" parent="kV2-ElPKzwBOEJ-UU_A2-72" vertex="1" connectable="0">
          <mxGeometry x="-0.4337" y="-3" relative="1" as="geometry">
            <mxPoint x="-3" y="-1" as="offset" />
          </mxGeometry>
        </mxCell>
        <mxCell id="8dO7dVruccK_q2NAqXuD-3" style="edgeStyle=orthogonalEdgeStyle;rounded=0;orthogonalLoop=1;jettySize=auto;html=1;exitX=0.5;exitY=0;exitDx=0;exitDy=0;entryX=0;entryY=0;entryDx=0;entryDy=0;" parent="1" source="kV2-ElPKzwBOEJ-UU_A2-74" target="kV2-ElPKzwBOEJ-UU_A2-56" edge="1">
          <mxGeometry relative="1" as="geometry" />
        </mxCell>
        <mxCell id="kV2-ElPKzwBOEJ-UU_A2-74" value="安全以太网交换机" style="whiteSpace=wrap;html=1;align=center;fontSize=15;fillColor=#d5e8d4;strokeColor=#82b366;" parent="1" vertex="1">
          <mxGeometry x="246" y="170" width="104" height="80" as="geometry" />
        </mxCell>
        <mxCell id="kV2-ElPKzwBOEJ-UU_A2-75" value="" style="shape=sumEllipse;perimeter=ellipsePerimeter;whiteSpace=wrap;html=1;backgroundOutline=1;" parent="1" vertex="1">
          <mxGeometry x="786" y="80" width="40" height="40" as="geometry" />
        </mxCell>
        <mxCell id="kV2-ElPKzwBOEJ-UU_A2-76" style="edgeStyle=orthogonalEdgeStyle;rounded=0;orthogonalLoop=1;jettySize=auto;html=1;exitX=1;exitY=0;exitDx=0;exitDy=0;entryX=0;entryY=0.25;entryDx=0;entryDy=0;strokeWidth=2;" parent="1" source="kV2-ElPKzwBOEJ-UU_A2-75" target="kV2-ElPKzwBOEJ-UU_A2-33" edge="1">
          <mxGeometry relative="1" as="geometry">
            <Array as="points">
              <mxPoint x="910" y="86" />
              <mxPoint x="910" y="-70" />
            </Array>
          </mxGeometry>
        </mxCell>
        <mxCell id="kV2-ElPKzwBOEJ-UU_A2-77" value="SIL4-DO" style="edgeLabel;html=1;align=center;verticalAlign=middle;resizable=0;points=[];fontSize=16;" parent="kV2-ElPKzwBOEJ-UU_A2-76" vertex="1" connectable="0">
          <mxGeometry x="0.2349" y="2" relative="1" as="geometry">
            <mxPoint x="50" y="2" as="offset" />
          </mxGeometry>
        </mxCell>
        <mxCell id="kV2-ElPKzwBOEJ-UU_A2-78" value="" style="group" parent="1" vertex="1" connectable="0">
          <mxGeometry x="1000" y="580" width="120" height="190" as="geometry" />
        </mxCell>
        <mxCell id="kV2-ElPKzwBOEJ-UU_A2-79" value="SIL3/4" style="rounded=0;whiteSpace=wrap;html=1;fillColor=#008a00;strokeColor=#005700;fontSize=21;fontColor=#ffffff;" parent="kV2-ElPKzwBOEJ-UU_A2-78" vertex="1">
          <mxGeometry y="40" width="120" height="30" as="geometry" />
        </mxCell>
        <mxCell id="kV2-ElPKzwBOEJ-UU_A2-80" value="&lt;font style=&quot;font-size: 21px;&quot;&gt;图例&lt;/font&gt;" style="text;html=1;strokeColor=none;fillColor=none;align=center;verticalAlign=middle;whiteSpace=wrap;rounded=0;" parent="kV2-ElPKzwBOEJ-UU_A2-78" vertex="1">
          <mxGeometry x="30" width="60" height="30" as="geometry" />
        </mxCell>
        <mxCell id="kV2-ElPKzwBOEJ-UU_A2-81" value="SIL2" style="rounded=0;whiteSpace=wrap;html=1;fillColor=#d5e8d4;strokeColor=#82b366;fontSize=21;" parent="kV2-ElPKzwBOEJ-UU_A2-78" vertex="1">
          <mxGeometry y="80" width="120" height="30" as="geometry" />
        </mxCell>
        <mxCell id="kV2-ElPKzwBOEJ-UU_A2-82" value="SIL0" style="rounded=0;whiteSpace=wrap;html=1;fillColor=#f8cecc;strokeColor=#b85450;fontSize=21;" parent="kV2-ElPKzwBOEJ-UU_A2-78" vertex="1">
          <mxGeometry y="120" width="120" height="30" as="geometry" />
        </mxCell>
        <mxCell id="kV2-ElPKzwBOEJ-UU_A2-83" value="安全无关" style="rounded=0;whiteSpace=wrap;html=1;fillColor=#dae8fc;strokeColor=#6c8ebf;fontSize=21;" parent="kV2-ElPKzwBOEJ-UU_A2-78" vertex="1">
          <mxGeometry y="160" width="120" height="30" as="geometry" />
        </mxCell>
        <mxCell id="kV2-ElPKzwBOEJ-UU_A2-84" style="edgeStyle=orthogonalEdgeStyle;rounded=0;orthogonalLoop=1;jettySize=auto;html=1;entryX=0.25;entryY=0;entryDx=0;entryDy=0;strokeWidth=4;strokeColor=#82b366;exitX=1;exitY=0.25;exitDx=0;exitDy=0;fillColor=#d5e8d4;startArrow=classic;startFill=1;" parent="1" source="kV2-ElPKzwBOEJ-UU_A2-4" target="kV2-ElPKzwBOEJ-UU_A2-65" edge="1">
          <mxGeometry relative="1" as="geometry">
            <mxPoint x="510" y="54.588235294117794" as="targetPoint" />
            <mxPoint x="-130" y="80" as="sourcePoint" />
            <Array as="points">
              <mxPoint x="270" y="50" />
              <mxPoint x="270" y="90" />
              <mxPoint x="642" y="90" />
            </Array>
          </mxGeometry>
        </mxCell>
        <mxCell id="kV2-ElPKzwBOEJ-UU_A2-85" value="SIL2-CAN" style="edgeLabel;html=1;align=center;verticalAlign=middle;resizable=0;points=[];fontSize=16;" parent="kV2-ElPKzwBOEJ-UU_A2-84" vertex="1" connectable="0">
          <mxGeometry x="0.4133" relative="1" as="geometry">
            <mxPoint x="-166" y="-23" as="offset" />
          </mxGeometry>
        </mxCell>
        <mxCell id="kV2-ElPKzwBOEJ-UU_A2-86" style="edgeStyle=orthogonalEdgeStyle;rounded=0;orthogonalLoop=1;jettySize=auto;html=1;exitX=1;exitY=0.5;exitDx=0;exitDy=0;entryX=0;entryY=0.25;entryDx=0;entryDy=0;strokeWidth=4;strokeColor=#82b366;fillColor=#d5e8d4;startArrow=classic;startFill=1;" parent="1" source="kV2-ElPKzwBOEJ-UU_A2-7" target="kV2-ElPKzwBOEJ-UU_A2-65" edge="1">
          <mxGeometry relative="1" as="geometry">
            <mxPoint x="510" y="150" as="targetPoint" />
          </mxGeometry>
        </mxCell>
        <mxCell id="kV2-ElPKzwBOEJ-UU_A2-87" value="SIL2-CAN" style="edgeLabel;html=1;align=center;verticalAlign=middle;resizable=0;points=[];fontSize=16;" parent="kV2-ElPKzwBOEJ-UU_A2-86" vertex="1" connectable="0">
          <mxGeometry x="0.4002" y="2" relative="1" as="geometry">
            <mxPoint x="-130" y="-13" as="offset" />
          </mxGeometry>
        </mxCell>
        <mxCell id="8dO7dVruccK_q2NAqXuD-1" style="edgeStyle=orthogonalEdgeStyle;rounded=0;orthogonalLoop=1;jettySize=auto;html=1;exitX=1;exitY=0;exitDx=0;exitDy=0;entryX=0.25;entryY=0;entryDx=0;entryDy=0;fillColor=#f8cecc;strokeColor=#B83021;strokeWidth=4;" parent="1" source="kV2-ElPKzwBOEJ-UU_A2-4" target="kV2-ElPKzwBOEJ-UU_A2-56" edge="1">
          <mxGeometry relative="1" as="geometry">
            <Array as="points">
              <mxPoint x="-129" y="-20" />
              <mxPoint x="642" y="-20" />
            </Array>
          </mxGeometry>
        </mxCell>
        <mxCell id="8dO7dVruccK_q2NAqXuD-2" style="edgeStyle=orthogonalEdgeStyle;rounded=0;orthogonalLoop=1;jettySize=auto;html=1;exitX=1;exitY=0.25;exitDx=0;exitDy=0;entryX=0;entryY=0.25;entryDx=0;entryDy=0;fillColor=#f8cecc;strokeColor=#B83021;strokeWidth=4;" parent="1" source="kV2-ElPKzwBOEJ-UU_A2-7" target="kV2-ElPKzwBOEJ-UU_A2-56" edge="1">
          <mxGeometry relative="1" as="geometry">
            <Array as="points">
              <mxPoint x="140" y="135" />
              <mxPoint x="140" y="22" />
            </Array>
          </mxGeometry>
        </mxCell>
      </root>
    </mxGraphModel>
  </diagram>
  <diagram id="lsjFzdNTHn-OdfoM8NlI" name="循迹系统全连接图 高鑫鹏">
    <mxGraphModel dx="2073" dy="1593" grid="1" gridSize="10" guides="1" tooltips="1" connect="1" arrows="1" fold="1" page="1" pageScale="1" pageWidth="827" pageHeight="1169" math="0" shadow="0">
      <root>
        <mxCell id="0" />
        <mxCell id="1" parent="0" />
        <mxCell id="QA0R_lEdsybjFQ6YRMCE-1" value="" style="rounded=0;whiteSpace=wrap;html=1;fillStyle=dashed;dashed=1;" parent="1" vertex="1">
          <mxGeometry x="-279" y="-70" width="499" height="440" as="geometry" />
        </mxCell>
        <mxCell id="QA0R_lEdsybjFQ6YRMCE-2" style="edgeStyle=orthogonalEdgeStyle;rounded=0;orthogonalLoop=1;jettySize=auto;html=1;exitX=1;exitY=0.75;exitDx=0;exitDy=0;entryX=0.25;entryY=0;entryDx=0;entryDy=0;" parent="1" source="QA0R_lEdsybjFQ6YRMCE-4" target="QA0R_lEdsybjFQ6YRMCE-22" edge="1">
          <mxGeometry relative="1" as="geometry">
            <mxPoint x="231" y="69.88235294117658" as="targetPoint" />
            <Array as="points">
              <mxPoint x="-35" y="80" />
            </Array>
          </mxGeometry>
        </mxCell>
        <mxCell id="QA0R_lEdsybjFQ6YRMCE-3" value="1000M&lt;br&gt;ETH" style="edgeLabel;html=1;align=center;verticalAlign=middle;resizable=0;points=[];fontSize=16;" parent="QA0R_lEdsybjFQ6YRMCE-2" vertex="1" connectable="0">
          <mxGeometry x="0.2177" y="-1" relative="1" as="geometry">
            <mxPoint as="offset" />
          </mxGeometry>
        </mxCell>
        <mxCell id="QA0R_lEdsybjFQ6YRMCE-4" value="传感器1-1&lt;br style=&quot;font-size: 16px;&quot;&gt;GPS-RTK" style="rounded=0;whiteSpace=wrap;html=1;fillColor=#f8cecc;strokeColor=#b85450;fontSize=16;" parent="1" vertex="1">
          <mxGeometry x="-249" y="35" width="120" height="60" as="geometry" />
        </mxCell>
        <mxCell id="QA0R_lEdsybjFQ6YRMCE-5" style="edgeStyle=orthogonalEdgeStyle;rounded=0;orthogonalLoop=1;jettySize=auto;html=1;exitX=0.5;exitY=1;exitDx=0;exitDy=0;entryX=0;entryY=0.25;entryDx=0;entryDy=0;" parent="1" source="QA0R_lEdsybjFQ6YRMCE-7" target="QA0R_lEdsybjFQ6YRMCE-22" edge="1">
          <mxGeometry relative="1" as="geometry" />
        </mxCell>
        <mxCell id="QA0R_lEdsybjFQ6YRMCE-6" value="ETH" style="edgeLabel;html=1;align=center;verticalAlign=middle;resizable=0;points=[];" parent="QA0R_lEdsybjFQ6YRMCE-5" vertex="1" connectable="0">
          <mxGeometry x="0.2521" y="-1" relative="1" as="geometry">
            <mxPoint x="1" as="offset" />
          </mxGeometry>
        </mxCell>
        <mxCell id="zMVv8xVTADvQjUOD5xDu-2" value="1000M ETH" style="edgeLabel;html=1;align=center;verticalAlign=middle;resizable=0;points=[];endArrow=classic;rounded=0;strokeColor=none;startArrow=classic;startFill=1;fontSize=16;" parent="QA0R_lEdsybjFQ6YRMCE-5" vertex="1" connectable="0">
          <mxGeometry x="0.2748" y="-2" relative="1" as="geometry">
            <mxPoint as="offset" />
          </mxGeometry>
        </mxCell>
        <mxCell id="QA0R_lEdsybjFQ6YRMCE-7" value="传感器1-2&lt;br style=&quot;font-size: 16px;&quot;&gt;BD-RTK" style="rounded=0;whiteSpace=wrap;html=1;fillColor=#f8cecc;strokeColor=#b85450;fontSize=16;" parent="1" vertex="1">
          <mxGeometry x="-249" y="120" width="120" height="60" as="geometry" />
        </mxCell>
        <mxCell id="QA0R_lEdsybjFQ6YRMCE-8" style="edgeStyle=orthogonalEdgeStyle;rounded=0;orthogonalLoop=1;jettySize=auto;html=1;exitX=1;exitY=0.5;exitDx=0;exitDy=0;startArrow=classic;startFill=1;" parent="1" source="QA0R_lEdsybjFQ6YRMCE-9" target="QA0R_lEdsybjFQ6YRMCE-22" edge="1">
          <mxGeometry relative="1" as="geometry" />
        </mxCell>
        <mxCell id="zMVv8xVTADvQjUOD5xDu-3" value="1000M ETH" style="edgeLabel;html=1;align=center;verticalAlign=middle;resizable=0;points=[];fontSize=16;" parent="QA0R_lEdsybjFQ6YRMCE-8" vertex="1" connectable="0">
          <mxGeometry x="-0.093" y="1" relative="1" as="geometry">
            <mxPoint x="1" as="offset" />
          </mxGeometry>
        </mxCell>
        <mxCell id="QA0R_lEdsybjFQ6YRMCE-9" value="传感器2-1&lt;br style=&quot;font-size: 15px;&quot;&gt;机械式Lidar" style="rounded=0;whiteSpace=wrap;html=1;fillColor=#dae8fc;strokeColor=#6c8ebf;fontSize=15;" parent="1" vertex="1">
          <mxGeometry x="-249" y="280" width="120" height="60" as="geometry" />
        </mxCell>
        <mxCell id="QA0R_lEdsybjFQ6YRMCE-10" style="edgeStyle=orthogonalEdgeStyle;rounded=0;orthogonalLoop=1;jettySize=auto;html=1;exitX=1;exitY=0.5;exitDx=0;exitDy=0;" parent="1" source="QA0R_lEdsybjFQ6YRMCE-11" target="QA0R_lEdsybjFQ6YRMCE-19" edge="1">
          <mxGeometry relative="1" as="geometry" />
        </mxCell>
        <mxCell id="QA0R_lEdsybjFQ6YRMCE-11" value="传感器0-1&lt;br style=&quot;font-size: 15px;&quot;&gt;Camera 模组" style="rounded=0;whiteSpace=wrap;html=1;dashed=1;fillColor=#dae8fc;strokeColor=#6c8ebf;fontSize=15;" parent="1" vertex="1">
          <mxGeometry x="-249" y="-53" width="120" height="60" as="geometry" />
        </mxCell>
        <mxCell id="QA0R_lEdsybjFQ6YRMCE-12" style="edgeStyle=orthogonalEdgeStyle;rounded=0;orthogonalLoop=1;jettySize=auto;html=1;exitX=1;exitY=0.5;exitDx=0;exitDy=0;entryX=0;entryY=0.5;entryDx=0;entryDy=0;" parent="1" source="QA0R_lEdsybjFQ6YRMCE-13" target="QA0R_lEdsybjFQ6YRMCE-4" edge="1">
          <mxGeometry relative="1" as="geometry" />
        </mxCell>
        <mxCell id="QA0R_lEdsybjFQ6YRMCE-13" value="定位信号" style="ellipse;whiteSpace=wrap;html=1;align=center;fontStyle=4;" parent="1" vertex="1">
          <mxGeometry x="-439" y="45" width="100" height="40" as="geometry" />
        </mxCell>
        <mxCell id="QA0R_lEdsybjFQ6YRMCE-14" style="edgeStyle=orthogonalEdgeStyle;rounded=0;orthogonalLoop=1;jettySize=auto;html=1;exitX=1;exitY=0.5;exitDx=0;exitDy=0;entryX=0;entryY=0.5;entryDx=0;entryDy=0;" parent="1" source="QA0R_lEdsybjFQ6YRMCE-15" target="QA0R_lEdsybjFQ6YRMCE-7" edge="1">
          <mxGeometry relative="1" as="geometry" />
        </mxCell>
        <mxCell id="QA0R_lEdsybjFQ6YRMCE-15" value="定位信号" style="ellipse;whiteSpace=wrap;html=1;align=center;fontStyle=4;" parent="1" vertex="1">
          <mxGeometry x="-439" y="130" width="100" height="40" as="geometry" />
        </mxCell>
        <mxCell id="QA0R_lEdsybjFQ6YRMCE-16" style="edgeStyle=orthogonalEdgeStyle;rounded=0;orthogonalLoop=1;jettySize=auto;html=1;exitX=1;exitY=0.5;exitDx=0;exitDy=0;entryX=0;entryY=0.5;entryDx=0;entryDy=0;" parent="1" source="QA0R_lEdsybjFQ6YRMCE-17" target="QA0R_lEdsybjFQ6YRMCE-9" edge="1">
          <mxGeometry relative="1" as="geometry" />
        </mxCell>
        <mxCell id="QA0R_lEdsybjFQ6YRMCE-17" value="点云数据" style="ellipse;whiteSpace=wrap;html=1;align=center;fontStyle=4;" parent="1" vertex="1">
          <mxGeometry x="-439" y="290" width="100" height="40" as="geometry" />
        </mxCell>
        <mxCell id="QA0R_lEdsybjFQ6YRMCE-18" style="edgeStyle=orthogonalEdgeStyle;rounded=0;orthogonalLoop=1;jettySize=auto;html=1;exitX=0.75;exitY=1;exitDx=0;exitDy=0;entryX=0.75;entryY=0;entryDx=0;entryDy=0;" parent="1" source="QA0R_lEdsybjFQ6YRMCE-19" target="QA0R_lEdsybjFQ6YRMCE-22" edge="1">
          <mxGeometry relative="1" as="geometry" />
        </mxCell>
        <mxCell id="zMVv8xVTADvQjUOD5xDu-1" value="1000M ETH" style="edgeLabel;html=1;align=center;verticalAlign=middle;resizable=0;points=[];fontSize=16;" parent="QA0R_lEdsybjFQ6YRMCE-18" vertex="1" connectable="0">
          <mxGeometry x="0.0689" y="-4" relative="1" as="geometry">
            <mxPoint as="offset" />
          </mxGeometry>
        </mxCell>
        <mxCell id="QA0R_lEdsybjFQ6YRMCE-19" value="图像处理模块&lt;br&gt;（外购）" style="whiteSpace=wrap;html=1;align=center;dashed=1;fillColor=#dae8fc;strokeColor=#6c8ebf;fontSize=15;" parent="1" vertex="1">
          <mxGeometry x="-60" y="-53" width="100" height="60" as="geometry" />
        </mxCell>
        <mxCell id="QA0R_lEdsybjFQ6YRMCE-20" style="edgeStyle=orthogonalEdgeStyle;rounded=0;orthogonalLoop=1;jettySize=auto;html=1;exitX=1;exitY=0.25;exitDx=0;exitDy=0;strokeWidth=4;startArrow=classicThin;startFill=1;strokeColor=#FF0000;entryX=0;entryY=0.75;entryDx=0;entryDy=0;" parent="1" source="QA0R_lEdsybjFQ6YRMCE-22" target="QA0R_lEdsybjFQ6YRMCE-74" edge="1">
          <mxGeometry relative="1" as="geometry" />
        </mxCell>
        <mxCell id="QA0R_lEdsybjFQ6YRMCE-21" value="SIL0-100Mb&lt;br style=&quot;font-size: 16px;&quot;&gt;ETH" style="edgeLabel;html=1;align=center;verticalAlign=middle;resizable=0;points=[];fontSize=16;" parent="QA0R_lEdsybjFQ6YRMCE-20" vertex="1" connectable="0">
          <mxGeometry x="0.4401" y="-2" relative="1" as="geometry">
            <mxPoint x="-44" y="6" as="offset" />
          </mxGeometry>
        </mxCell>
        <mxCell id="QA0R_lEdsybjFQ6YRMCE-22" value="智能驾驶机箱&lt;br&gt;（自研）" style="whiteSpace=wrap;html=1;align=center;fillColor=#dae8fc;strokeColor=#6c8ebf;verticalAlign=top;fontSize=15;" parent="1" vertex="1">
          <mxGeometry x="-60" y="190" width="100" height="150" as="geometry" />
        </mxCell>
        <mxCell id="QA0R_lEdsybjFQ6YRMCE-23" value="安全计算模组" style="whiteSpace=wrap;html=1;align=center;verticalAlign=top;fontSize=20;fillColor=#f5f5f5;fontColor=#333333;strokeColor=#666666;" parent="1" vertex="1">
          <mxGeometry x="430" y="-70" width="440" height="420" as="geometry" />
        </mxCell>
        <mxCell id="QA0R_lEdsybjFQ6YRMCE-24" style="edgeStyle=orthogonalEdgeStyle;rounded=0;orthogonalLoop=1;jettySize=auto;html=1;exitX=0;exitY=0.25;exitDx=0;exitDy=0;entryX=0.75;entryY=1;entryDx=0;entryDy=0;strokeWidth=2;startArrow=classic;startFill=1;strokeColor=#b85450;fillColor=#f8cecc;" parent="1" source="QA0R_lEdsybjFQ6YRMCE-26" target="QA0R_lEdsybjFQ6YRMCE-65" edge="1">
          <mxGeometry relative="1" as="geometry">
            <Array as="points">
              <mxPoint x="1010" y="321" />
              <mxPoint x="1010" y="230" />
              <mxPoint x="702" y="230" />
            </Array>
          </mxGeometry>
        </mxCell>
        <mxCell id="QA0R_lEdsybjFQ6YRMCE-25" value="SIL0-CAN" style="edgeLabel;html=1;align=center;verticalAlign=middle;resizable=0;points=[];fontSize=16;" parent="QA0R_lEdsybjFQ6YRMCE-24" vertex="1" connectable="0">
          <mxGeometry x="0.2878" y="3" relative="1" as="geometry">
            <mxPoint x="140" y="47" as="offset" />
          </mxGeometry>
        </mxCell>
        <mxCell id="QA0R_lEdsybjFQ6YRMCE-26" value="&lt;font style=&quot;font-size: 20px;&quot;&gt;线控转向机&lt;br&gt;要求SIL1+人工&lt;/font&gt;" style="whiteSpace=wrap;html=1;align=center;fontSize=16;fillColor=#f8cecc;strokeColor=#b85450;" parent="1" vertex="1">
          <mxGeometry x="1145" y="289" width="260" height="130" as="geometry" />
        </mxCell>
        <mxCell id="QA0R_lEdsybjFQ6YRMCE-27" value="" style="endArrow=none;dashed=1;html=1;rounded=0;fillColor=#d80073;strokeColor=#A50040;strokeWidth=3;" parent="1" edge="1">
          <mxGeometry width="50" height="50" relative="1" as="geometry">
            <mxPoint x="371" y="780" as="sourcePoint" />
            <mxPoint x="371" y="-280" as="targetPoint" />
          </mxGeometry>
        </mxCell>
        <mxCell id="QA0R_lEdsybjFQ6YRMCE-28" value="" style="endArrow=none;dashed=1;html=1;rounded=0;fillColor=#d80073;strokeColor=#A50040;strokeWidth=3;" parent="1" edge="1">
          <mxGeometry width="50" height="50" relative="1" as="geometry">
            <mxPoint x="970" y="770" as="sourcePoint" />
            <mxPoint x="960" y="-290" as="targetPoint" />
          </mxGeometry>
        </mxCell>
        <mxCell id="QA0R_lEdsybjFQ6YRMCE-33" value="执行器1&lt;br style=&quot;font-size: 20px;&quot;&gt;应急制动系统" style="whiteSpace=wrap;html=1;align=center;fontSize=20;fillColor=#60a917;fontColor=#ffffff;strokeColor=#2D7600;fontStyle=1" parent="1" vertex="1">
          <mxGeometry x="1143" y="-90" width="270" height="80" as="geometry" />
        </mxCell>
        <mxCell id="QA0R_lEdsybjFQ6YRMCE-34" style="edgeStyle=orthogonalEdgeStyle;rounded=0;orthogonalLoop=1;jettySize=auto;html=1;strokeWidth=4;startArrow=classic;startFill=1;fillColor=#d5e8d4;strokeColor=#bfe4aa;entryX=0.75;entryY=1;entryDx=0;entryDy=0;exitX=0.75;exitY=0;exitDx=0;exitDy=0;" parent="1" source="QA0R_lEdsybjFQ6YRMCE-39" target="QA0R_lEdsybjFQ6YRMCE-74" edge="1">
          <mxGeometry relative="1" as="geometry">
            <mxPoint x="324" y="530" as="sourcePoint" />
            <Array as="points">
              <mxPoint x="286" y="460" />
              <mxPoint x="324" y="460" />
            </Array>
          </mxGeometry>
        </mxCell>
        <mxCell id="QA0R_lEdsybjFQ6YRMCE-35" value="SIL2-100Mb&lt;br style=&quot;font-size: 16px;&quot;&gt;ETH" style="edgeLabel;html=1;align=center;verticalAlign=middle;resizable=0;points=[];fontSize=16;" parent="QA0R_lEdsybjFQ6YRMCE-34" vertex="1" connectable="0">
          <mxGeometry x="0.1152" relative="1" as="geometry">
            <mxPoint x="-14" y="-55" as="offset" />
          </mxGeometry>
        </mxCell>
        <mxCell id="QA0R_lEdsybjFQ6YRMCE-36" style="edgeStyle=orthogonalEdgeStyle;rounded=0;orthogonalLoop=1;jettySize=auto;html=1;exitX=0.25;exitY=0;exitDx=0;exitDy=0;entryX=1;entryY=0.75;entryDx=0;entryDy=0;startArrow=classic;startFill=1;" parent="1" source="QA0R_lEdsybjFQ6YRMCE-39" target="QA0R_lEdsybjFQ6YRMCE-22" edge="1">
          <mxGeometry relative="1" as="geometry" />
        </mxCell>
        <mxCell id="QA0R_lEdsybjFQ6YRMCE-37" value="1000MB&lt;br style=&quot;font-size: 16px;&quot;&gt;ETH" style="edgeLabel;html=1;align=center;verticalAlign=middle;resizable=0;points=[];fontSize=16;" parent="QA0R_lEdsybjFQ6YRMCE-36" vertex="1" connectable="0">
          <mxGeometry x="-0.1933" y="4" relative="1" as="geometry">
            <mxPoint x="4" y="27" as="offset" />
          </mxGeometry>
        </mxCell>
        <mxCell id="QA0R_lEdsybjFQ6YRMCE-38" style="edgeStyle=orthogonalEdgeStyle;rounded=0;orthogonalLoop=1;jettySize=auto;html=1;entryX=0.5;entryY=0;entryDx=0;entryDy=0;startArrow=classic;startFill=1;" parent="1" source="QA0R_lEdsybjFQ6YRMCE-39" target="QA0R_lEdsybjFQ6YRMCE-48" edge="1">
          <mxGeometry relative="1" as="geometry">
            <mxPoint x="241" y="730" as="sourcePoint" />
          </mxGeometry>
        </mxCell>
        <mxCell id="QA0R_lEdsybjFQ6YRMCE-39" value="整车网络-控制环网" style="whiteSpace=wrap;html=1;align=center;fontSize=15;fillColor=#d5e8d4;strokeColor=#82b366;" parent="1" vertex="1">
          <mxGeometry x="151" y="540" width="180" height="70" as="geometry" />
        </mxCell>
        <mxCell id="QA0R_lEdsybjFQ6YRMCE-40" style="edgeStyle=orthogonalEdgeStyle;rounded=0;orthogonalLoop=1;jettySize=auto;html=1;exitX=1;exitY=0.5;exitDx=0;exitDy=0;entryX=0;entryY=0.5;entryDx=0;entryDy=0;strokeWidth=4;strokeColor=#bfe4aa;startArrow=classic;startFill=1;fillColor=#d5e8d4;" parent="1" source="QA0R_lEdsybjFQ6YRMCE-41" target="QA0R_lEdsybjFQ6YRMCE-39" edge="1">
          <mxGeometry relative="1" as="geometry" />
        </mxCell>
        <mxCell id="QA0R_lEdsybjFQ6YRMCE-41" value="信号系统" style="whiteSpace=wrap;html=1;align=center;fontSize=15;fillColor=#60a917;fontColor=#ffffff;strokeColor=#2D7600;" parent="1" vertex="1">
          <mxGeometry x="-94" y="540" width="170" height="70" as="geometry" />
        </mxCell>
        <mxCell id="QA0R_lEdsybjFQ6YRMCE-42" style="edgeStyle=orthogonalEdgeStyle;rounded=0;orthogonalLoop=1;jettySize=auto;html=1;exitX=0;exitY=0.5;exitDx=0;exitDy=0;entryX=1;entryY=0.5;entryDx=0;entryDy=0;strokeWidth=4;fillColor=#d5e8d4;strokeColor=#82b366;" parent="1" source="QA0R_lEdsybjFQ6YRMCE-44" target="QA0R_lEdsybjFQ6YRMCE-65" edge="1">
          <mxGeometry relative="1" as="geometry">
            <Array as="points">
              <mxPoint x="1080" y="203" />
              <mxPoint x="1080" y="165" />
            </Array>
          </mxGeometry>
        </mxCell>
        <mxCell id="QA0R_lEdsybjFQ6YRMCE-43" value="SIL2-CAN" style="edgeLabel;html=1;align=center;verticalAlign=middle;resizable=0;points=[];fontSize=16;" parent="QA0R_lEdsybjFQ6YRMCE-42" vertex="1" connectable="0">
          <mxGeometry x="0.021" y="1" relative="1" as="geometry">
            <mxPoint x="79" y="-5" as="offset" />
          </mxGeometry>
        </mxCell>
        <mxCell id="QA0R_lEdsybjFQ6YRMCE-44" value="执行器2&lt;br style=&quot;font-size: 20px;&quot;&gt;无轨导向-第一轴" style="whiteSpace=wrap;html=1;align=center;fontSize=20;fillColor=#d5e8d4;strokeColor=#82b366;" parent="1" vertex="1">
          <mxGeometry x="1143" y="138" width="270" height="130" as="geometry" />
        </mxCell>
        <mxCell id="QA0R_lEdsybjFQ6YRMCE-45" value="输入" style="rounded=0;whiteSpace=wrap;html=1;fontSize=30;fillColor=#ffe6cc;strokeColor=#d79b00;" parent="1" vertex="1">
          <mxGeometry x="-224" y="-220" width="430" height="60" as="geometry" />
        </mxCell>
        <mxCell id="QA0R_lEdsybjFQ6YRMCE-46" value="计算" style="rounded=0;whiteSpace=wrap;html=1;fontSize=30;fillColor=#ffe6cc;strokeColor=#d79b00;" parent="1" vertex="1">
          <mxGeometry x="425" y="-220" width="430" height="60" as="geometry" />
        </mxCell>
        <mxCell id="QA0R_lEdsybjFQ6YRMCE-47" value="输出" style="rounded=0;whiteSpace=wrap;html=1;fontSize=30;fillColor=#ffe6cc;strokeColor=#d79b00;" parent="1" vertex="1">
          <mxGeometry x="1060" y="-220" width="430" height="60" as="geometry" />
        </mxCell>
        <mxCell id="QA0R_lEdsybjFQ6YRMCE-48" value="HMI" style="rounded=0;whiteSpace=wrap;html=1;fillColor=#dae8fc;strokeColor=#6c8ebf;fontSize=21;" parent="1" vertex="1">
          <mxGeometry x="181" y="870" width="120" height="60" as="geometry" />
        </mxCell>
        <mxCell id="QA0R_lEdsybjFQ6YRMCE-49" value="循迹控制-性能-SIL0" style="rounded=0;whiteSpace=wrap;html=1;fontSize=16;fillColor=#f8cecc;strokeColor=#b85450;" parent="1" vertex="1">
          <mxGeometry x="-50" y="260" width="80" height="60" as="geometry" />
        </mxCell>
        <mxCell id="QA0R_lEdsybjFQ6YRMCE-50" style="edgeStyle=orthogonalEdgeStyle;rounded=0;orthogonalLoop=1;jettySize=auto;html=1;exitX=0;exitY=0.75;exitDx=0;exitDy=0;entryX=0;entryY=0.75;entryDx=0;entryDy=0;strokeWidth=2;" parent="1" source="QA0R_lEdsybjFQ6YRMCE-56" target="QA0R_lEdsybjFQ6YRMCE-68" edge="1">
          <mxGeometry relative="1" as="geometry">
            <Array as="points">
              <mxPoint x="490" y="52" />
              <mxPoint x="490" y="277" />
            </Array>
          </mxGeometry>
        </mxCell>
        <mxCell id="QA0R_lEdsybjFQ6YRMCE-51" value="SIL2-DO" style="edgeLabel;html=1;align=center;verticalAlign=middle;resizable=0;points=[];" parent="QA0R_lEdsybjFQ6YRMCE-50" vertex="1" connectable="0">
          <mxGeometry x="-0.1362" relative="1" as="geometry">
            <mxPoint as="offset" />
          </mxGeometry>
        </mxCell>
        <mxCell id="QA0R_lEdsybjFQ6YRMCE-52" style="edgeStyle=orthogonalEdgeStyle;rounded=0;orthogonalLoop=1;jettySize=auto;html=1;exitX=0;exitY=0.5;exitDx=0;exitDy=0;entryX=0;entryY=0.75;entryDx=0;entryDy=0;strokeWidth=2;" parent="1" source="QA0R_lEdsybjFQ6YRMCE-56" target="QA0R_lEdsybjFQ6YRMCE-71" edge="1">
          <mxGeometry relative="1" as="geometry">
            <Array as="points">
              <mxPoint x="450" y="37" />
              <mxPoint x="450" y="330" />
            </Array>
          </mxGeometry>
        </mxCell>
        <mxCell id="QA0R_lEdsybjFQ6YRMCE-53" value="SIL2-DO" style="edgeLabel;html=1;align=center;verticalAlign=middle;resizable=0;points=[];" parent="QA0R_lEdsybjFQ6YRMCE-52" vertex="1" connectable="0">
          <mxGeometry x="-0.2525" y="1" relative="1" as="geometry">
            <mxPoint as="offset" />
          </mxGeometry>
        </mxCell>
        <mxCell id="QA0R_lEdsybjFQ6YRMCE-54" style="edgeStyle=orthogonalEdgeStyle;rounded=0;orthogonalLoop=1;jettySize=auto;html=1;exitX=1;exitY=0.5;exitDx=0;exitDy=0;entryX=0;entryY=0;entryDx=0;entryDy=0;strokeWidth=2;" parent="1" source="QA0R_lEdsybjFQ6YRMCE-56" target="QA0R_lEdsybjFQ6YRMCE-75" edge="1">
          <mxGeometry relative="1" as="geometry">
            <Array as="points">
              <mxPoint x="770" y="37" />
              <mxPoint x="770" y="86" />
            </Array>
          </mxGeometry>
        </mxCell>
        <mxCell id="QA0R_lEdsybjFQ6YRMCE-55" value="SIL2-DO" style="edgeLabel;html=1;align=center;verticalAlign=middle;resizable=0;points=[];" parent="QA0R_lEdsybjFQ6YRMCE-54" vertex="1" connectable="0">
          <mxGeometry x="-0.5403" y="-4" relative="1" as="geometry">
            <mxPoint x="13" y="19" as="offset" />
          </mxGeometry>
        </mxCell>
        <mxCell id="MpqgN0TtOaUQc_sgGzAA-1" style="edgeStyle=orthogonalEdgeStyle;rounded=0;orthogonalLoop=1;jettySize=auto;html=1;exitX=1;exitY=0.25;exitDx=0;exitDy=0;entryX=0;entryY=0.25;entryDx=0;entryDy=0;" parent="1" source="QA0R_lEdsybjFQ6YRMCE-56" target="QA0R_lEdsybjFQ6YRMCE-44" edge="1">
          <mxGeometry relative="1" as="geometry">
            <Array as="points">
              <mxPoint x="938" y="22" />
              <mxPoint x="938" y="150" />
              <mxPoint x="1143" y="150" />
            </Array>
          </mxGeometry>
        </mxCell>
        <mxCell id="MpqgN0TtOaUQc_sgGzAA-4" style="edgeStyle=orthogonalEdgeStyle;rounded=0;orthogonalLoop=1;jettySize=auto;html=1;exitX=1;exitY=0.75;exitDx=0;exitDy=0;entryX=0;entryY=0.5;entryDx=0;entryDy=0;" parent="1" source="QA0R_lEdsybjFQ6YRMCE-56" target="QA0R_lEdsybjFQ6YRMCE-26" edge="1">
          <mxGeometry relative="1" as="geometry">
            <Array as="points">
              <mxPoint x="900" y="52" />
              <mxPoint x="900" y="354" />
            </Array>
          </mxGeometry>
        </mxCell>
        <mxCell id="QA0R_lEdsybjFQ6YRMCE-56" value="STW-1" style="rounded=0;whiteSpace=wrap;html=1;fillColor=#d5e8d4;fontColor=default;strokeColor=#82b366;fontSize=15;" parent="1" vertex="1">
          <mxGeometry x="612" y="7" width="120" height="60" as="geometry" />
        </mxCell>
        <mxCell id="QA0R_lEdsybjFQ6YRMCE-57" style="edgeStyle=orthogonalEdgeStyle;rounded=0;orthogonalLoop=1;jettySize=auto;html=1;exitX=0;exitY=0.913;exitDx=0;exitDy=0;entryX=0;entryY=0.25;entryDx=0;entryDy=0;strokeWidth=2;exitPerimeter=0;" parent="1" source="QA0R_lEdsybjFQ6YRMCE-65" target="QA0R_lEdsybjFQ6YRMCE-68" edge="1">
          <mxGeometry relative="1" as="geometry">
            <Array as="points">
              <mxPoint x="570" y="190" />
              <mxPoint x="570" y="252" />
              <mxPoint x="612" y="252" />
            </Array>
          </mxGeometry>
        </mxCell>
        <mxCell id="QA0R_lEdsybjFQ6YRMCE-58" value="SIL2-DO" style="edgeLabel;html=1;align=center;verticalAlign=middle;resizable=0;points=[];" parent="QA0R_lEdsybjFQ6YRMCE-57" vertex="1" connectable="0">
          <mxGeometry x="0.0737" y="-3" relative="1" as="geometry">
            <mxPoint as="offset" />
          </mxGeometry>
        </mxCell>
        <mxCell id="QA0R_lEdsybjFQ6YRMCE-59" style="edgeStyle=orthogonalEdgeStyle;rounded=0;orthogonalLoop=1;jettySize=auto;html=1;entryX=0;entryY=0.25;entryDx=0;entryDy=0;strokeWidth=2;exitX=0;exitY=0.75;exitDx=0;exitDy=0;" parent="1" source="QA0R_lEdsybjFQ6YRMCE-65" target="QA0R_lEdsybjFQ6YRMCE-71" edge="1">
          <mxGeometry relative="1" as="geometry">
            <Array as="points">
              <mxPoint x="520" y="180" />
              <mxPoint x="520" y="310" />
              <mxPoint x="612" y="310" />
            </Array>
            <mxPoint x="610" y="160" as="sourcePoint" />
          </mxGeometry>
        </mxCell>
        <mxCell id="QA0R_lEdsybjFQ6YRMCE-60" value="SIL2-DO" style="edgeLabel;html=1;align=center;verticalAlign=middle;resizable=0;points=[];" parent="QA0R_lEdsybjFQ6YRMCE-59" vertex="1" connectable="0">
          <mxGeometry x="-0.2552" y="3" relative="1" as="geometry">
            <mxPoint as="offset" />
          </mxGeometry>
        </mxCell>
        <mxCell id="QA0R_lEdsybjFQ6YRMCE-61" style="edgeStyle=orthogonalEdgeStyle;rounded=0;orthogonalLoop=1;jettySize=auto;html=1;entryX=0.5;entryY=1;entryDx=0;entryDy=0;startArrow=classic;startFill=1;strokeColor=#bfe4aa;strokeWidth=4;fillColor=#d5e8d4;" parent="1" source="QA0R_lEdsybjFQ6YRMCE-65" target="QA0R_lEdsybjFQ6YRMCE-56" edge="1">
          <mxGeometry relative="1" as="geometry" />
        </mxCell>
        <mxCell id="QA0R_lEdsybjFQ6YRMCE-62" value="ETH" style="edgeLabel;html=1;align=center;verticalAlign=middle;resizable=0;points=[];" parent="QA0R_lEdsybjFQ6YRMCE-61" vertex="1" connectable="0">
          <mxGeometry x="-0.0013" y="3" relative="1" as="geometry">
            <mxPoint x="3" y="-1" as="offset" />
          </mxGeometry>
        </mxCell>
        <mxCell id="QA0R_lEdsybjFQ6YRMCE-63" style="edgeStyle=orthogonalEdgeStyle;rounded=0;orthogonalLoop=1;jettySize=auto;html=1;exitX=1;exitY=0.25;exitDx=0;exitDy=0;entryX=0;entryY=1;entryDx=0;entryDy=0;strokeWidth=2;" parent="1" source="QA0R_lEdsybjFQ6YRMCE-65" target="QA0R_lEdsybjFQ6YRMCE-75" edge="1">
          <mxGeometry relative="1" as="geometry">
            <Array as="points">
              <mxPoint x="770" y="150" />
              <mxPoint x="770" y="114" />
            </Array>
          </mxGeometry>
        </mxCell>
        <mxCell id="QA0R_lEdsybjFQ6YRMCE-64" value="SIL2-DO" style="edgeLabel;html=1;align=center;verticalAlign=middle;resizable=0;points=[];" parent="QA0R_lEdsybjFQ6YRMCE-63" vertex="1" connectable="0">
          <mxGeometry x="-0.415" relative="1" as="geometry">
            <mxPoint x="10" y="-20" as="offset" />
          </mxGeometry>
        </mxCell>
        <mxCell id="MpqgN0TtOaUQc_sgGzAA-2" style="edgeStyle=orthogonalEdgeStyle;rounded=0;orthogonalLoop=1;jettySize=auto;html=1;exitX=1;exitY=0.25;exitDx=0;exitDy=0;" parent="1" source="QA0R_lEdsybjFQ6YRMCE-65" edge="1">
          <mxGeometry relative="1" as="geometry">
            <mxPoint x="731.9047619047619" y="149.57142857142844" as="targetPoint" />
          </mxGeometry>
        </mxCell>
        <mxCell id="QA0R_lEdsybjFQ6YRMCE-65" value="STW-2" style="rounded=0;whiteSpace=wrap;html=1;fillColor=#d5e8d4;fontColor=default;strokeColor=#82b366;fontSize=15;" parent="1" vertex="1">
          <mxGeometry x="612" y="135" width="120" height="60" as="geometry" />
        </mxCell>
        <mxCell id="QA0R_lEdsybjFQ6YRMCE-66" style="edgeStyle=orthogonalEdgeStyle;rounded=0;orthogonalLoop=1;jettySize=auto;html=1;exitX=1;exitY=0.5;exitDx=0;exitDy=0;entryX=0.5;entryY=1;entryDx=0;entryDy=0;strokeWidth=2;" parent="1" source="QA0R_lEdsybjFQ6YRMCE-68" target="QA0R_lEdsybjFQ6YRMCE-75" edge="1">
          <mxGeometry relative="1" as="geometry">
            <Array as="points">
              <mxPoint x="806" y="265" />
            </Array>
          </mxGeometry>
        </mxCell>
        <mxCell id="QA0R_lEdsybjFQ6YRMCE-67" value="继电器电平" style="edgeLabel;html=1;align=center;verticalAlign=middle;resizable=0;points=[];" parent="QA0R_lEdsybjFQ6YRMCE-66" vertex="1" connectable="0">
          <mxGeometry x="-0.6073" relative="1" as="geometry">
            <mxPoint x="31" y="-70" as="offset" />
          </mxGeometry>
        </mxCell>
        <mxCell id="QA0R_lEdsybjFQ6YRMCE-68" value="安全继电器-1" style="rounded=0;whiteSpace=wrap;html=1;fillColor=#60a917;fontColor=#ffffff;strokeColor=#2D7600;" parent="1" vertex="1">
          <mxGeometry x="612" y="240" width="120" height="49" as="geometry" />
        </mxCell>
        <mxCell id="QA0R_lEdsybjFQ6YRMCE-69" style="edgeStyle=orthogonalEdgeStyle;rounded=0;orthogonalLoop=1;jettySize=auto;html=1;exitX=1;exitY=0.5;exitDx=0;exitDy=0;entryX=1;entryY=1;entryDx=0;entryDy=0;strokeWidth=2;" parent="1" source="QA0R_lEdsybjFQ6YRMCE-71" target="QA0R_lEdsybjFQ6YRMCE-75" edge="1">
          <mxGeometry relative="1" as="geometry">
            <mxPoint x="740" y="-50" as="targetPoint" />
            <Array as="points">
              <mxPoint x="850" y="319" />
              <mxPoint x="850" y="114" />
            </Array>
          </mxGeometry>
        </mxCell>
        <mxCell id="QA0R_lEdsybjFQ6YRMCE-70" value="继电器电平" style="edgeLabel;html=1;align=center;verticalAlign=middle;resizable=0;points=[];" parent="QA0R_lEdsybjFQ6YRMCE-69" vertex="1" connectable="0">
          <mxGeometry x="-0.0872" relative="1" as="geometry">
            <mxPoint x="-60" y="43" as="offset" />
          </mxGeometry>
        </mxCell>
        <mxCell id="QA0R_lEdsybjFQ6YRMCE-71" value="安全继电器-2" style="rounded=0;whiteSpace=wrap;html=1;fillColor=#60a917;fontColor=#ffffff;strokeColor=#2D7600;" parent="1" vertex="1">
          <mxGeometry x="612" y="299" width="120" height="41" as="geometry" />
        </mxCell>
        <mxCell id="QA0R_lEdsybjFQ6YRMCE-72" style="edgeStyle=orthogonalEdgeStyle;rounded=0;orthogonalLoop=1;jettySize=auto;html=1;exitX=1;exitY=0.5;exitDx=0;exitDy=0;entryX=0;entryY=0.5;entryDx=0;entryDy=0;strokeColor=#bfe4aa;strokeWidth=4;fillColor=#d5e8d4;startArrow=classic;startFill=1;" parent="1" source="QA0R_lEdsybjFQ6YRMCE-74" target="QA0R_lEdsybjFQ6YRMCE-65" edge="1">
          <mxGeometry relative="1" as="geometry">
            <Array as="points">
              <mxPoint x="410" y="210" />
              <mxPoint x="410" y="165" />
            </Array>
          </mxGeometry>
        </mxCell>
        <mxCell id="QA0R_lEdsybjFQ6YRMCE-73" value="ETH" style="edgeLabel;html=1;align=center;verticalAlign=middle;resizable=0;points=[];" parent="QA0R_lEdsybjFQ6YRMCE-72" vertex="1" connectable="0">
          <mxGeometry x="-0.4337" y="-3" relative="1" as="geometry">
            <mxPoint x="-3" y="-1" as="offset" />
          </mxGeometry>
        </mxCell>
        <mxCell id="QA0R_lEdsybjFQ6YRMCE-74" value="安全以太网交换机" style="whiteSpace=wrap;html=1;align=center;fontSize=15;fillColor=#d5e8d4;strokeColor=#82b366;" parent="1" vertex="1">
          <mxGeometry x="246" y="170" width="104" height="80" as="geometry" />
        </mxCell>
        <mxCell id="QA0R_lEdsybjFQ6YRMCE-75" value="" style="shape=sumEllipse;perimeter=ellipsePerimeter;whiteSpace=wrap;html=1;backgroundOutline=1;" parent="1" vertex="1">
          <mxGeometry x="786" y="80" width="40" height="40" as="geometry" />
        </mxCell>
        <mxCell id="QA0R_lEdsybjFQ6YRMCE-76" style="edgeStyle=orthogonalEdgeStyle;rounded=0;orthogonalLoop=1;jettySize=auto;html=1;exitX=1;exitY=0;exitDx=0;exitDy=0;entryX=0;entryY=0.25;entryDx=0;entryDy=0;strokeWidth=2;" parent="1" source="QA0R_lEdsybjFQ6YRMCE-75" target="QA0R_lEdsybjFQ6YRMCE-33" edge="1">
          <mxGeometry relative="1" as="geometry">
            <Array as="points">
              <mxPoint x="910" y="86" />
              <mxPoint x="910" y="-70" />
            </Array>
          </mxGeometry>
        </mxCell>
        <mxCell id="QA0R_lEdsybjFQ6YRMCE-77" value="SIL4-DO" style="edgeLabel;html=1;align=center;verticalAlign=middle;resizable=0;points=[];fontSize=16;" parent="QA0R_lEdsybjFQ6YRMCE-76" vertex="1" connectable="0">
          <mxGeometry x="0.2349" y="2" relative="1" as="geometry">
            <mxPoint x="50" y="2" as="offset" />
          </mxGeometry>
        </mxCell>
        <mxCell id="QA0R_lEdsybjFQ6YRMCE-78" value="" style="group" parent="1" vertex="1" connectable="0">
          <mxGeometry x="1000" y="580" width="120" height="190" as="geometry" />
        </mxCell>
        <mxCell id="QA0R_lEdsybjFQ6YRMCE-79" value="SIL3/4" style="rounded=0;whiteSpace=wrap;html=1;fillColor=#008a00;strokeColor=#005700;fontSize=21;fontColor=#ffffff;" parent="QA0R_lEdsybjFQ6YRMCE-78" vertex="1">
          <mxGeometry y="40" width="120" height="30" as="geometry" />
        </mxCell>
        <mxCell id="QA0R_lEdsybjFQ6YRMCE-80" value="&lt;font style=&quot;font-size: 21px;&quot;&gt;图例&lt;/font&gt;" style="text;html=1;strokeColor=none;fillColor=none;align=center;verticalAlign=middle;whiteSpace=wrap;rounded=0;" parent="QA0R_lEdsybjFQ6YRMCE-78" vertex="1">
          <mxGeometry x="30" width="60" height="30" as="geometry" />
        </mxCell>
        <mxCell id="QA0R_lEdsybjFQ6YRMCE-81" value="SIL2" style="rounded=0;whiteSpace=wrap;html=1;fillColor=#d5e8d4;strokeColor=#82b366;fontSize=21;" parent="QA0R_lEdsybjFQ6YRMCE-78" vertex="1">
          <mxGeometry y="80" width="120" height="30" as="geometry" />
        </mxCell>
        <mxCell id="QA0R_lEdsybjFQ6YRMCE-82" value="SIL0" style="rounded=0;whiteSpace=wrap;html=1;fillColor=#f8cecc;strokeColor=#b85450;fontSize=21;" parent="QA0R_lEdsybjFQ6YRMCE-78" vertex="1">
          <mxGeometry y="120" width="120" height="30" as="geometry" />
        </mxCell>
        <mxCell id="QA0R_lEdsybjFQ6YRMCE-83" value="安全无关" style="rounded=0;whiteSpace=wrap;html=1;fillColor=#dae8fc;strokeColor=#6c8ebf;fontSize=21;" parent="QA0R_lEdsybjFQ6YRMCE-78" vertex="1">
          <mxGeometry y="160" width="120" height="30" as="geometry" />
        </mxCell>
        <mxCell id="QA0R_lEdsybjFQ6YRMCE-84" style="edgeStyle=orthogonalEdgeStyle;rounded=0;orthogonalLoop=1;jettySize=auto;html=1;entryX=0.25;entryY=0;entryDx=0;entryDy=0;strokeWidth=4;strokeColor=#82b366;exitX=1;exitY=0.25;exitDx=0;exitDy=0;fillColor=#d5e8d4;startArrow=classic;startFill=1;" parent="1" source="QA0R_lEdsybjFQ6YRMCE-4" target="QA0R_lEdsybjFQ6YRMCE-65" edge="1">
          <mxGeometry relative="1" as="geometry">
            <mxPoint x="510" y="54.588235294117794" as="targetPoint" />
            <mxPoint x="-130" y="80" as="sourcePoint" />
            <Array as="points">
              <mxPoint x="270" y="50" />
              <mxPoint x="270" y="90" />
              <mxPoint x="642" y="90" />
            </Array>
          </mxGeometry>
        </mxCell>
        <mxCell id="QA0R_lEdsybjFQ6YRMCE-85" value="SIL2-CAN" style="edgeLabel;html=1;align=center;verticalAlign=middle;resizable=0;points=[];fontSize=16;" parent="QA0R_lEdsybjFQ6YRMCE-84" vertex="1" connectable="0">
          <mxGeometry x="0.4133" relative="1" as="geometry">
            <mxPoint x="-166" y="-23" as="offset" />
          </mxGeometry>
        </mxCell>
        <mxCell id="QA0R_lEdsybjFQ6YRMCE-86" style="edgeStyle=orthogonalEdgeStyle;rounded=0;orthogonalLoop=1;jettySize=auto;html=1;exitX=1;exitY=0.5;exitDx=0;exitDy=0;entryX=0;entryY=0.25;entryDx=0;entryDy=0;strokeWidth=4;strokeColor=#82b366;fillColor=#d5e8d4;startArrow=classic;startFill=1;" parent="1" source="QA0R_lEdsybjFQ6YRMCE-7" target="QA0R_lEdsybjFQ6YRMCE-65" edge="1">
          <mxGeometry relative="1" as="geometry">
            <mxPoint x="510" y="150" as="targetPoint" />
          </mxGeometry>
        </mxCell>
        <mxCell id="QA0R_lEdsybjFQ6YRMCE-87" value="SIL2-CAN" style="edgeLabel;html=1;align=center;verticalAlign=middle;resizable=0;points=[];fontSize=16;" parent="QA0R_lEdsybjFQ6YRMCE-86" vertex="1" connectable="0">
          <mxGeometry x="0.4002" y="2" relative="1" as="geometry">
            <mxPoint x="-130" y="-13" as="offset" />
          </mxGeometry>
        </mxCell>
        <mxCell id="QA0R_lEdsybjFQ6YRMCE-88" value="无轨导向系统" style="rounded=0;whiteSpace=wrap;html=1;" parent="1" vertex="1">
          <mxGeometry x="-94" y="450" width="174" height="70" as="geometry" />
        </mxCell>
        <mxCell id="QA0R_lEdsybjFQ6YRMCE-89" style="edgeStyle=orthogonalEdgeStyle;rounded=0;orthogonalLoop=1;jettySize=auto;html=1;entryX=0.098;entryY=0.003;entryDx=0;entryDy=0;entryPerimeter=0;" parent="1" source="QA0R_lEdsybjFQ6YRMCE-88" target="QA0R_lEdsybjFQ6YRMCE-39" edge="1">
          <mxGeometry relative="1" as="geometry" />
        </mxCell>
        <mxCell id="QA0R_lEdsybjFQ6YRMCE-90" value="ETH TRDP" style="edgeLabel;html=1;align=center;verticalAlign=middle;resizable=0;points=[];" parent="QA0R_lEdsybjFQ6YRMCE-89" vertex="1" connectable="0">
          <mxGeometry x="-0.4326" y="1" relative="1" as="geometry">
            <mxPoint as="offset" />
          </mxGeometry>
        </mxCell>
        <mxCell id="QA0R_lEdsybjFQ6YRMCE-91" style="edgeStyle=orthogonalEdgeStyle;rounded=0;orthogonalLoop=1;jettySize=auto;html=1;entryX=0.25;entryY=1;entryDx=0;entryDy=0;" parent="1" source="QA0R_lEdsybjFQ6YRMCE-93" target="QA0R_lEdsybjFQ6YRMCE-39" edge="1">
          <mxGeometry relative="1" as="geometry" />
        </mxCell>
        <mxCell id="QA0R_lEdsybjFQ6YRMCE-92" value="ETH TRDP" style="edgeLabel;html=1;align=center;verticalAlign=middle;resizable=0;points=[];" parent="QA0R_lEdsybjFQ6YRMCE-91" vertex="1" connectable="0">
          <mxGeometry x="-0.5183" relative="1" as="geometry">
            <mxPoint as="offset" />
          </mxGeometry>
        </mxCell>
        <mxCell id="QA0R_lEdsybjFQ6YRMCE-93" value="整车网络CCU" style="rounded=0;whiteSpace=wrap;html=1;" parent="1" vertex="1">
          <mxGeometry x="-94" y="640" width="174" height="80" as="geometry" />
        </mxCell>
        <mxCell id="QA0R_lEdsybjFQ6YRMCE-94" value="整车网络CCU" style="rounded=0;whiteSpace=wrap;html=1;fillColor=#d5e8d4;strokeColor=#82b366;" parent="1" vertex="1">
          <mxGeometry x="-94" y="740" width="174" height="80" as="geometry" />
        </mxCell>
        <mxCell id="QA0R_lEdsybjFQ6YRMCE-95" style="edgeStyle=orthogonalEdgeStyle;rounded=0;orthogonalLoop=1;jettySize=auto;html=1;entryX=0.396;entryY=1.043;entryDx=0;entryDy=0;entryPerimeter=0;fillColor=#d5e8d4;strokeColor=#bfe4aa;strokeWidth=4;startArrow=classic;startFill=1;" parent="1" source="QA0R_lEdsybjFQ6YRMCE-94" target="QA0R_lEdsybjFQ6YRMCE-39" edge="1">
          <mxGeometry relative="1" as="geometry" />
        </mxCell>
        <mxCell id="QA0R_lEdsybjFQ6YRMCE-96" value="SIL2 ETH" style="edgeLabel;html=1;align=center;verticalAlign=middle;resizable=0;points=[];" parent="QA0R_lEdsybjFQ6YRMCE-95" vertex="1" connectable="0">
          <mxGeometry x="-0.484" y="1" relative="1" as="geometry">
            <mxPoint as="offset" />
          </mxGeometry>
        </mxCell>
        <mxCell id="9U1DxD7QZlR0YzYpBEyV-1" style="edgeStyle=orthogonalEdgeStyle;rounded=0;orthogonalLoop=1;jettySize=auto;html=1;exitX=0.75;exitY=0;exitDx=0;exitDy=0;entryX=0.25;entryY=0;entryDx=0;entryDy=0;strokeColor=#b85450;strokeWidth=4;fillColor=#f8cecc;startArrow=classic;startFill=1;" parent="1" source="QA0R_lEdsybjFQ6YRMCE-4" target="QA0R_lEdsybjFQ6YRMCE-56" edge="1">
          <mxGeometry relative="1" as="geometry" />
        </mxCell>
        <mxCell id="9U1DxD7QZlR0YzYpBEyV-2" style="edgeStyle=orthogonalEdgeStyle;rounded=0;orthogonalLoop=1;jettySize=auto;html=1;exitX=0.75;exitY=0;exitDx=0;exitDy=0;entryX=0;entryY=0.25;entryDx=0;entryDy=0;strokeColor=#b85450;strokeWidth=4;fillColor=#f8cecc;startArrow=classic;startFill=1;" parent="1" source="QA0R_lEdsybjFQ6YRMCE-7" target="QA0R_lEdsybjFQ6YRMCE-56" edge="1">
          <mxGeometry relative="1" as="geometry">
            <Array as="points">
              <mxPoint x="170" y="120" />
              <mxPoint x="170" y="22" />
            </Array>
          </mxGeometry>
        </mxCell>
        <mxCell id="c5elofrn21GOvbaTEzZl-1" style="edgeStyle=orthogonalEdgeStyle;rounded=0;orthogonalLoop=1;jettySize=auto;html=1;exitX=1;exitY=0.25;exitDx=0;exitDy=0;entryX=0.5;entryY=0;entryDx=0;entryDy=0;strokeColor=#FF3333;" edge="1" parent="1" source="QA0R_lEdsybjFQ6YRMCE-19" target="QA0R_lEdsybjFQ6YRMCE-56">
          <mxGeometry relative="1" as="geometry">
            <Array as="points">
              <mxPoint x="672" y="-38" />
            </Array>
          </mxGeometry>
        </mxCell>
        <mxCell id="c5elofrn21GOvbaTEzZl-2" value="？？？？？" style="edgeLabel;html=1;align=center;verticalAlign=middle;resizable=0;points=[];" vertex="1" connectable="0" parent="c5elofrn21GOvbaTEzZl-1">
          <mxGeometry x="-0.145" y="-1" relative="1" as="geometry">
            <mxPoint as="offset" />
          </mxGeometry>
        </mxCell>
        <mxCell id="c5elofrn21GOvbaTEzZl-4" style="edgeStyle=orthogonalEdgeStyle;rounded=0;orthogonalLoop=1;jettySize=auto;html=1;exitX=1;exitY=0.25;exitDx=0;exitDy=0;entryX=1;entryY=0;entryDx=0;entryDy=0;strokeColor=#FF3333;" edge="1" parent="1" source="c5elofrn21GOvbaTEzZl-3" target="QA0R_lEdsybjFQ6YRMCE-65">
          <mxGeometry relative="1" as="geometry">
            <Array as="points">
              <mxPoint x="750" y="-135" />
              <mxPoint x="750" y="135" />
            </Array>
          </mxGeometry>
        </mxCell>
        <mxCell id="d_UFcmRtmfyxDf4EQ65h-3" value="？？？？？" style="edgeLabel;html=1;align=center;verticalAlign=middle;resizable=0;points=[];" vertex="1" connectable="0" parent="c5elofrn21GOvbaTEzZl-4">
          <mxGeometry x="-0.1974" y="1" relative="1" as="geometry">
            <mxPoint as="offset" />
          </mxGeometry>
        </mxCell>
        <mxCell id="c5elofrn21GOvbaTEzZl-3" value="传感0-2&lt;br&gt;智驾摄像头" style="rounded=0;whiteSpace=wrap;html=1;dashed=1;fillColor=#dae8fc;strokeColor=#6c8ebf;fontSize=15;" vertex="1" parent="1">
          <mxGeometry x="-249" y="-150" width="120" height="60" as="geometry" />
        </mxCell>
      </root>
    </mxGraphModel>
  </diagram>
  <diagram id="GJm1DADgoG_9GpByzgdt" name="安全继电器逻辑硬线回路">
    <mxGraphModel dx="1242" dy="1955" grid="1" gridSize="10" guides="1" tooltips="1" connect="1" arrows="1" fold="1" page="1" pageScale="1" pageWidth="827" pageHeight="1169" math="0" shadow="0">
      <root>
        <mxCell id="0" />
        <mxCell id="1" parent="0" />
        <mxCell id="kPTsabC9QxoZIVhiGDaa-1" value="安全计算模组" style="whiteSpace=wrap;html=1;align=center;verticalAlign=top;fontSize=20;fillColor=#f5f5f5;fontColor=#333333;strokeColor=#666666;" parent="1" vertex="1">
          <mxGeometry x="430" y="-50" width="440" height="400" as="geometry" />
        </mxCell>
        <mxCell id="kPTsabC9QxoZIVhiGDaa-5" value="执行器1&lt;br style=&quot;font-size: 20px;&quot;&gt;应急制动系统" style="whiteSpace=wrap;html=1;align=center;fontSize=20;fillColor=#60a917;fontColor=#ffffff;strokeColor=#2D7600;fontStyle=1" parent="1" vertex="1">
          <mxGeometry x="1143" y="-90" width="270" height="80" as="geometry" />
        </mxCell>
        <mxCell id="kPTsabC9QxoZIVhiGDaa-9" style="edgeStyle=orthogonalEdgeStyle;rounded=0;orthogonalLoop=1;jettySize=auto;html=1;exitX=0;exitY=0.75;exitDx=0;exitDy=0;entryX=0;entryY=0.75;entryDx=0;entryDy=0;strokeWidth=2;" parent="1" source="kPTsabC9QxoZIVhiGDaa-16" target="kPTsabC9QxoZIVhiGDaa-29" edge="1">
          <mxGeometry relative="1" as="geometry">
            <Array as="points">
              <mxPoint x="490" y="52" />
              <mxPoint x="490" y="277" />
            </Array>
          </mxGeometry>
        </mxCell>
        <mxCell id="kPTsabC9QxoZIVhiGDaa-10" value="SIL2-DO" style="edgeLabel;html=1;align=center;verticalAlign=middle;resizable=0;points=[];" parent="kPTsabC9QxoZIVhiGDaa-9" vertex="1" connectable="0">
          <mxGeometry x="-0.1362" relative="1" as="geometry">
            <mxPoint as="offset" />
          </mxGeometry>
        </mxCell>
        <mxCell id="kPTsabC9QxoZIVhiGDaa-11" style="edgeStyle=orthogonalEdgeStyle;rounded=0;orthogonalLoop=1;jettySize=auto;html=1;exitX=0;exitY=0.5;exitDx=0;exitDy=0;entryX=0;entryY=0.75;entryDx=0;entryDy=0;strokeWidth=2;" parent="1" source="kPTsabC9QxoZIVhiGDaa-16" target="kPTsabC9QxoZIVhiGDaa-32" edge="1">
          <mxGeometry relative="1" as="geometry">
            <Array as="points">
              <mxPoint x="450" y="37" />
              <mxPoint x="450" y="330" />
            </Array>
          </mxGeometry>
        </mxCell>
        <mxCell id="kPTsabC9QxoZIVhiGDaa-12" value="SIL2-DO" style="edgeLabel;html=1;align=center;verticalAlign=middle;resizable=0;points=[];" parent="kPTsabC9QxoZIVhiGDaa-11" vertex="1" connectable="0">
          <mxGeometry x="-0.2525" y="1" relative="1" as="geometry">
            <mxPoint as="offset" />
          </mxGeometry>
        </mxCell>
        <mxCell id="kPTsabC9QxoZIVhiGDaa-13" style="edgeStyle=orthogonalEdgeStyle;rounded=0;orthogonalLoop=1;jettySize=auto;html=1;exitX=1;exitY=0.5;exitDx=0;exitDy=0;entryX=0;entryY=0;entryDx=0;entryDy=0;strokeWidth=2;" parent="1" source="kPTsabC9QxoZIVhiGDaa-16" target="kPTsabC9QxoZIVhiGDaa-34" edge="1">
          <mxGeometry relative="1" as="geometry">
            <Array as="points">
              <mxPoint x="770" y="37" />
              <mxPoint x="770" y="86" />
            </Array>
          </mxGeometry>
        </mxCell>
        <mxCell id="kPTsabC9QxoZIVhiGDaa-14" value="SIL2-DO" style="edgeLabel;html=1;align=center;verticalAlign=middle;resizable=0;points=[];" parent="kPTsabC9QxoZIVhiGDaa-13" vertex="1" connectable="0">
          <mxGeometry x="-0.5403" y="-4" relative="1" as="geometry">
            <mxPoint x="13" y="19" as="offset" />
          </mxGeometry>
        </mxCell>
        <mxCell id="g0bjd9XSqsmkl1bo5QIL-13" value="" style="edgeStyle=orthogonalEdgeStyle;rounded=0;orthogonalLoop=1;jettySize=auto;html=1;entryX=0.5;entryY=0;entryDx=0;entryDy=0;exitX=0.993;exitY=0.181;exitDx=0;exitDy=0;exitPerimeter=0;strokeWidth=3;" parent="1" source="g0bjd9XSqsmkl1bo5QIL-16" edge="1">
          <mxGeometry relative="1" as="geometry">
            <mxPoint x="711" y="535" as="sourcePoint" />
            <mxPoint x="761" y="605" as="targetPoint" />
            <Array as="points">
              <mxPoint x="711" y="531" />
              <mxPoint x="761" y="530" />
            </Array>
          </mxGeometry>
        </mxCell>
        <mxCell id="g0bjd9XSqsmkl1bo5QIL-20" value="DO 5V" style="edgeLabel;html=1;align=center;verticalAlign=middle;resizable=0;points=[];" parent="g0bjd9XSqsmkl1bo5QIL-13" vertex="1" connectable="0">
          <mxGeometry x="0.3833" y="-3" relative="1" as="geometry">
            <mxPoint as="offset" />
          </mxGeometry>
        </mxCell>
        <mxCell id="kPTsabC9QxoZIVhiGDaa-16" value="STW-1" style="rounded=0;whiteSpace=wrap;html=1;fillColor=#d5e8d4;fontColor=default;strokeColor=#82b366;fontSize=15;" parent="1" vertex="1">
          <mxGeometry x="612" y="7" width="120" height="60" as="geometry" />
        </mxCell>
        <mxCell id="kPTsabC9QxoZIVhiGDaa-17" style="edgeStyle=orthogonalEdgeStyle;rounded=0;orthogonalLoop=1;jettySize=auto;html=1;exitX=0;exitY=0.913;exitDx=0;exitDy=0;strokeWidth=2;exitPerimeter=0;" parent="1" source="kPTsabC9QxoZIVhiGDaa-26" edge="1">
          <mxGeometry relative="1" as="geometry">
            <Array as="points">
              <mxPoint x="570" y="190" />
              <mxPoint x="570" y="252" />
              <mxPoint x="590" y="252" />
            </Array>
            <mxPoint x="590" y="230" as="targetPoint" />
          </mxGeometry>
        </mxCell>
        <mxCell id="kPTsabC9QxoZIVhiGDaa-18" value="SIL2-DO" style="edgeLabel;html=1;align=center;verticalAlign=middle;resizable=0;points=[];" parent="kPTsabC9QxoZIVhiGDaa-17" vertex="1" connectable="0">
          <mxGeometry x="0.0737" y="-3" relative="1" as="geometry">
            <mxPoint as="offset" />
          </mxGeometry>
        </mxCell>
        <mxCell id="g0bjd9XSqsmkl1bo5QIL-1" value="Text" style="edgeLabel;html=1;align=center;verticalAlign=middle;resizable=0;points=[];" parent="kPTsabC9QxoZIVhiGDaa-17" vertex="1" connectable="0">
          <mxGeometry x="0.8307" relative="1" as="geometry">
            <mxPoint as="offset" />
          </mxGeometry>
        </mxCell>
        <mxCell id="g0bjd9XSqsmkl1bo5QIL-12" value="Text" style="edgeLabel;html=1;align=center;verticalAlign=middle;resizable=0;points=[];" parent="kPTsabC9QxoZIVhiGDaa-17" vertex="1" connectable="0">
          <mxGeometry x="0.5978" y="-3" relative="1" as="geometry">
            <mxPoint as="offset" />
          </mxGeometry>
        </mxCell>
        <mxCell id="kPTsabC9QxoZIVhiGDaa-19" style="edgeStyle=orthogonalEdgeStyle;rounded=0;orthogonalLoop=1;jettySize=auto;html=1;entryX=0;entryY=0.25;entryDx=0;entryDy=0;strokeWidth=2;exitX=0;exitY=0.75;exitDx=0;exitDy=0;" parent="1" source="kPTsabC9QxoZIVhiGDaa-26" target="kPTsabC9QxoZIVhiGDaa-32" edge="1">
          <mxGeometry relative="1" as="geometry">
            <Array as="points">
              <mxPoint x="520" y="180" />
              <mxPoint x="520" y="310" />
              <mxPoint x="612" y="310" />
            </Array>
            <mxPoint x="610" y="160" as="sourcePoint" />
          </mxGeometry>
        </mxCell>
        <mxCell id="kPTsabC9QxoZIVhiGDaa-20" value="SIL2-DO" style="edgeLabel;html=1;align=center;verticalAlign=middle;resizable=0;points=[];" parent="kPTsabC9QxoZIVhiGDaa-19" vertex="1" connectable="0">
          <mxGeometry x="-0.2552" y="3" relative="1" as="geometry">
            <mxPoint as="offset" />
          </mxGeometry>
        </mxCell>
        <mxCell id="kPTsabC9QxoZIVhiGDaa-23" style="edgeStyle=orthogonalEdgeStyle;rounded=0;orthogonalLoop=1;jettySize=auto;html=1;exitX=1;exitY=0.25;exitDx=0;exitDy=0;entryX=0;entryY=1;entryDx=0;entryDy=0;strokeWidth=2;" parent="1" source="kPTsabC9QxoZIVhiGDaa-26" target="kPTsabC9QxoZIVhiGDaa-34" edge="1">
          <mxGeometry relative="1" as="geometry">
            <Array as="points">
              <mxPoint x="770" y="150" />
              <mxPoint x="770" y="114" />
            </Array>
          </mxGeometry>
        </mxCell>
        <mxCell id="kPTsabC9QxoZIVhiGDaa-24" value="SIL2-DO" style="edgeLabel;html=1;align=center;verticalAlign=middle;resizable=0;points=[];" parent="kPTsabC9QxoZIVhiGDaa-23" vertex="1" connectable="0">
          <mxGeometry x="-0.415" relative="1" as="geometry">
            <mxPoint x="10" y="-20" as="offset" />
          </mxGeometry>
        </mxCell>
        <mxCell id="g0bjd9XSqsmkl1bo5QIL-10" style="edgeStyle=orthogonalEdgeStyle;rounded=0;orthogonalLoop=1;jettySize=auto;html=1;exitX=0;exitY=0.25;exitDx=0;exitDy=0;entryX=0.5;entryY=0;entryDx=0;entryDy=0;strokeWidth=3;" parent="1" source="g0bjd9XSqsmkl1bo5QIL-15" target="g0bjd9XSqsmkl1bo5QIL-26" edge="1">
          <mxGeometry relative="1" as="geometry" />
        </mxCell>
        <mxCell id="g0bjd9XSqsmkl1bo5QIL-11" value="DO 5V&amp;nbsp;" style="edgeLabel;html=1;align=center;verticalAlign=middle;resizable=0;points=[];" parent="g0bjd9XSqsmkl1bo5QIL-10" vertex="1" connectable="0">
          <mxGeometry x="0.5944" y="2" relative="1" as="geometry">
            <mxPoint as="offset" />
          </mxGeometry>
        </mxCell>
        <mxCell id="kPTsabC9QxoZIVhiGDaa-26" value="STW-2" style="rounded=0;whiteSpace=wrap;html=1;fillColor=#d5e8d4;fontColor=default;strokeColor=#82b366;fontSize=15;" parent="1" vertex="1">
          <mxGeometry x="612" y="135" width="120" height="60" as="geometry" />
        </mxCell>
        <mxCell id="kPTsabC9QxoZIVhiGDaa-27" style="edgeStyle=orthogonalEdgeStyle;rounded=0;orthogonalLoop=1;jettySize=auto;html=1;exitX=1;exitY=0.5;exitDx=0;exitDy=0;entryX=0.5;entryY=1;entryDx=0;entryDy=0;strokeWidth=2;" parent="1" source="kPTsabC9QxoZIVhiGDaa-29" target="kPTsabC9QxoZIVhiGDaa-34" edge="1">
          <mxGeometry relative="1" as="geometry">
            <Array as="points">
              <mxPoint x="806" y="265" />
            </Array>
          </mxGeometry>
        </mxCell>
        <mxCell id="kPTsabC9QxoZIVhiGDaa-28" value="继电器电平" style="edgeLabel;html=1;align=center;verticalAlign=middle;resizable=0;points=[];" parent="kPTsabC9QxoZIVhiGDaa-27" vertex="1" connectable="0">
          <mxGeometry x="-0.6073" relative="1" as="geometry">
            <mxPoint x="31" y="-70" as="offset" />
          </mxGeometry>
        </mxCell>
        <mxCell id="kPTsabC9QxoZIVhiGDaa-29" value="安全继电器-1" style="rounded=0;whiteSpace=wrap;html=1;fillColor=#60a917;fontColor=#ffffff;strokeColor=#2D7600;" parent="1" vertex="1">
          <mxGeometry x="612" y="240" width="120" height="49" as="geometry" />
        </mxCell>
        <mxCell id="kPTsabC9QxoZIVhiGDaa-30" style="edgeStyle=orthogonalEdgeStyle;rounded=0;orthogonalLoop=1;jettySize=auto;html=1;exitX=1;exitY=0.5;exitDx=0;exitDy=0;entryX=1;entryY=1;entryDx=0;entryDy=0;strokeWidth=2;" parent="1" source="kPTsabC9QxoZIVhiGDaa-32" target="kPTsabC9QxoZIVhiGDaa-34" edge="1">
          <mxGeometry relative="1" as="geometry">
            <mxPoint x="740" y="-50" as="targetPoint" />
            <Array as="points">
              <mxPoint x="850" y="319" />
              <mxPoint x="850" y="114" />
            </Array>
          </mxGeometry>
        </mxCell>
        <mxCell id="kPTsabC9QxoZIVhiGDaa-31" value="继电器电平" style="edgeLabel;html=1;align=center;verticalAlign=middle;resizable=0;points=[];" parent="kPTsabC9QxoZIVhiGDaa-30" vertex="1" connectable="0">
          <mxGeometry x="-0.0872" relative="1" as="geometry">
            <mxPoint x="-60" y="43" as="offset" />
          </mxGeometry>
        </mxCell>
        <mxCell id="kPTsabC9QxoZIVhiGDaa-32" value="安全继电器-2" style="rounded=0;whiteSpace=wrap;html=1;fillColor=#60a917;fontColor=#ffffff;strokeColor=#2D7600;" parent="1" vertex="1">
          <mxGeometry x="612" y="299" width="120" height="41" as="geometry" />
        </mxCell>
        <mxCell id="kPTsabC9QxoZIVhiGDaa-34" value="" style="shape=sumEllipse;perimeter=ellipsePerimeter;whiteSpace=wrap;html=1;backgroundOutline=1;" parent="1" vertex="1">
          <mxGeometry x="786" y="80" width="40" height="40" as="geometry" />
        </mxCell>
        <mxCell id="kPTsabC9QxoZIVhiGDaa-35" style="edgeStyle=orthogonalEdgeStyle;rounded=0;orthogonalLoop=1;jettySize=auto;html=1;exitX=1;exitY=0;exitDx=0;exitDy=0;entryX=0;entryY=0.25;entryDx=0;entryDy=0;strokeWidth=2;" parent="1" source="kPTsabC9QxoZIVhiGDaa-34" target="kPTsabC9QxoZIVhiGDaa-5" edge="1">
          <mxGeometry relative="1" as="geometry">
            <Array as="points">
              <mxPoint x="910" y="86" />
              <mxPoint x="910" y="-70" />
            </Array>
          </mxGeometry>
        </mxCell>
        <mxCell id="kPTsabC9QxoZIVhiGDaa-36" value="SIL4-DO" style="edgeLabel;html=1;align=center;verticalAlign=middle;resizable=0;points=[];fontSize=16;" parent="kPTsabC9QxoZIVhiGDaa-35" vertex="1" connectable="0">
          <mxGeometry x="0.2349" y="2" relative="1" as="geometry">
            <mxPoint x="50" y="2" as="offset" />
          </mxGeometry>
        </mxCell>
        <mxCell id="g0bjd9XSqsmkl1bo5QIL-3" value="目的：低电平有效t" style="edgeLabel;html=1;align=center;verticalAlign=middle;resizable=0;points=[];" parent="kPTsabC9QxoZIVhiGDaa-35" vertex="1" connectable="0">
          <mxGeometry x="-0.714" y="-3" relative="1" as="geometry">
            <mxPoint as="offset" />
          </mxGeometry>
        </mxCell>
        <mxCell id="z1nPETjoCpWDoCizqoXq-1" value="" style="group" parent="1" vertex="1" connectable="0">
          <mxGeometry x="980" y="160" width="120" height="190" as="geometry" />
        </mxCell>
        <mxCell id="z1nPETjoCpWDoCizqoXq-2" value="SIL3/4" style="rounded=0;whiteSpace=wrap;html=1;fillColor=#008a00;strokeColor=#005700;fontSize=21;fontColor=#ffffff;" parent="z1nPETjoCpWDoCizqoXq-1" vertex="1">
          <mxGeometry y="40" width="120" height="30" as="geometry" />
        </mxCell>
        <mxCell id="z1nPETjoCpWDoCizqoXq-3" value="&lt;font style=&quot;font-size: 21px;&quot;&gt;图例&lt;/font&gt;" style="text;html=1;strokeColor=none;fillColor=none;align=center;verticalAlign=middle;whiteSpace=wrap;rounded=0;" parent="z1nPETjoCpWDoCizqoXq-1" vertex="1">
          <mxGeometry x="30" width="60" height="30" as="geometry" />
        </mxCell>
        <mxCell id="z1nPETjoCpWDoCizqoXq-4" value="SIL2" style="rounded=0;whiteSpace=wrap;html=1;fillColor=#d5e8d4;strokeColor=#82b366;fontSize=21;" parent="z1nPETjoCpWDoCizqoXq-1" vertex="1">
          <mxGeometry y="80" width="120" height="30" as="geometry" />
        </mxCell>
        <mxCell id="z1nPETjoCpWDoCizqoXq-5" value="SIL0" style="rounded=0;whiteSpace=wrap;html=1;fillColor=#f8cecc;strokeColor=#b85450;fontSize=21;" parent="z1nPETjoCpWDoCizqoXq-1" vertex="1">
          <mxGeometry y="120" width="120" height="30" as="geometry" />
        </mxCell>
        <mxCell id="z1nPETjoCpWDoCizqoXq-6" value="安全无关" style="rounded=0;whiteSpace=wrap;html=1;fillColor=#dae8fc;strokeColor=#6c8ebf;fontSize=21;" parent="z1nPETjoCpWDoCizqoXq-1" vertex="1">
          <mxGeometry y="160" width="120" height="30" as="geometry" />
        </mxCell>
        <mxCell id="g0bjd9XSqsmkl1bo5QIL-8" style="edgeStyle=orthogonalEdgeStyle;rounded=0;orthogonalLoop=1;jettySize=auto;html=1;exitX=1;exitY=0.25;exitDx=0;exitDy=0;entryX=0;entryY=0.5;entryDx=0;entryDy=0;" parent="1" source="g0bjd9XSqsmkl1bo5QIL-4" target="g0bjd9XSqsmkl1bo5QIL-25" edge="1">
          <mxGeometry relative="1" as="geometry">
            <Array as="points">
              <mxPoint x="660" y="650" />
              <mxPoint x="660" y="615" />
            </Array>
          </mxGeometry>
        </mxCell>
        <mxCell id="g0bjd9XSqsmkl1bo5QIL-9" value="5V 线圈" style="edgeLabel;html=1;align=center;verticalAlign=middle;resizable=0;points=[];" parent="g0bjd9XSqsmkl1bo5QIL-8" vertex="1" connectable="0">
          <mxGeometry x="0.0836" y="-3" relative="1" as="geometry">
            <mxPoint x="-39" y="-3" as="offset" />
          </mxGeometry>
        </mxCell>
        <mxCell id="g0bjd9XSqsmkl1bo5QIL-4" value="安全继电器1 触点" style="whiteSpace=wrap;html=1;fontSize=21;fillColor=#008a00;strokeColor=#005700;fontColor=#ffffff;rounded=0;" parent="1" vertex="1">
          <mxGeometry x="470" y="635" width="120" height="60" as="geometry" />
        </mxCell>
        <mxCell id="g0bjd9XSqsmkl1bo5QIL-18" style="edgeStyle=orthogonalEdgeStyle;rounded=0;orthogonalLoop=1;jettySize=auto;html=1;exitX=0.75;exitY=1;exitDx=0;exitDy=0;" parent="1" source="g0bjd9XSqsmkl1bo5QIL-5" edge="1">
          <mxGeometry relative="1" as="geometry">
            <mxPoint x="950" y="640" as="targetPoint" />
            <mxPoint x="790" y="660" as="sourcePoint" />
            <Array as="points">
              <mxPoint x="790" y="710" />
              <mxPoint x="901" y="710" />
              <mxPoint x="901" y="640" />
            </Array>
          </mxGeometry>
        </mxCell>
        <mxCell id="g0bjd9XSqsmkl1bo5QIL-5" value="安全继电器2 触点" style="whiteSpace=wrap;html=1;fontSize=21;fillColor=#008a00;strokeColor=#005700;fontColor=#ffffff;rounded=0;" parent="1" vertex="1">
          <mxGeometry x="700" y="635" width="120" height="60" as="geometry" />
        </mxCell>
        <mxCell id="g0bjd9XSqsmkl1bo5QIL-6" value="5" style="endArrow=none;html=1;rounded=0;entryX=0;entryY=0.75;entryDx=0;entryDy=0;" parent="1" target="g0bjd9XSqsmkl1bo5QIL-26" edge="1">
          <mxGeometry width="50" height="50" relative="1" as="geometry">
            <mxPoint x="340" y="620" as="sourcePoint" />
            <mxPoint x="760" y="460" as="targetPoint" />
            <Array as="points" />
          </mxGeometry>
        </mxCell>
        <mxCell id="g0bjd9XSqsmkl1bo5QIL-7" value="5V 线圈电压供电" style="edgeLabel;html=1;align=center;verticalAlign=middle;resizable=0;points=[];" parent="g0bjd9XSqsmkl1bo5QIL-6" vertex="1" connectable="0">
          <mxGeometry x="-0.3891" relative="1" as="geometry">
            <mxPoint as="offset" />
          </mxGeometry>
        </mxCell>
        <mxCell id="g0bjd9XSqsmkl1bo5QIL-15" value="STW-1" style="rounded=0;whiteSpace=wrap;html=1;fillColor=#d5e8d4;fontColor=default;strokeColor=#82b366;fontSize=15;" parent="1" vertex="1">
          <mxGeometry x="590" y="450" width="120" height="60" as="geometry" />
        </mxCell>
        <mxCell id="g0bjd9XSqsmkl1bo5QIL-16" value="STW-2" style="rounded=0;whiteSpace=wrap;html=1;fillColor=#d5e8d4;fontColor=default;strokeColor=#82b366;fontSize=15;" parent="1" vertex="1">
          <mxGeometry x="590" y="520" width="120" height="60" as="geometry" />
        </mxCell>
        <mxCell id="g0bjd9XSqsmkl1bo5QIL-17" value="" style="shape=sumEllipse;perimeter=ellipsePerimeter;whiteSpace=wrap;html=1;backgroundOutline=1;" parent="1" vertex="1">
          <mxGeometry x="786" y="-100" width="40" height="40" as="geometry" />
        </mxCell>
        <mxCell id="g0bjd9XSqsmkl1bo5QIL-19" value="执行器1&lt;br style=&quot;font-size: 20px;&quot;&gt;应急制动系统" style="whiteSpace=wrap;html=1;align=center;fontSize=20;fillColor=#60a917;fontColor=#ffffff;strokeColor=#2D7600;fontStyle=1" parent="1" vertex="1">
          <mxGeometry x="950" y="600" width="270" height="80" as="geometry" />
        </mxCell>
        <mxCell id="g0bjd9XSqsmkl1bo5QIL-24" value="" style="endArrow=none;html=1;rounded=0;exitX=0;exitY=0.5;exitDx=0;exitDy=0;" parent="1" source="g0bjd9XSqsmkl1bo5QIL-5" edge="1">
          <mxGeometry width="50" height="50" relative="1" as="geometry">
            <mxPoint x="770" y="690" as="sourcePoint" />
            <mxPoint x="620" y="710" as="targetPoint" />
          </mxGeometry>
        </mxCell>
        <mxCell id="g0bjd9XSqsmkl1bo5QIL-30" value="24V" style="edgeLabel;html=1;align=center;verticalAlign=middle;resizable=0;points=[];" parent="g0bjd9XSqsmkl1bo5QIL-24" vertex="1" connectable="0">
          <mxGeometry x="0.2372" y="4" relative="1" as="geometry">
            <mxPoint y="-1" as="offset" />
          </mxGeometry>
        </mxCell>
        <mxCell id="g0bjd9XSqsmkl1bo5QIL-25" value="线圈" style="rounded=0;whiteSpace=wrap;html=1;fontSize=21;fillColor=#008a00;strokeColor=#005700;fontColor=#ffffff;" parent="1" vertex="1">
          <mxGeometry x="700" y="600" width="120" height="30" as="geometry" />
        </mxCell>
        <mxCell id="g0bjd9XSqsmkl1bo5QIL-26" value="线圈" style="rounded=0;whiteSpace=wrap;html=1;fontSize=21;fillColor=#008a00;strokeColor=#005700;fontColor=#ffffff;" parent="1" vertex="1">
          <mxGeometry x="470" y="600" width="120" height="30" as="geometry" />
        </mxCell>
        <mxCell id="g0bjd9XSqsmkl1bo5QIL-28" value="" style="endArrow=none;html=1;rounded=0;entryX=0;entryY=0.5;entryDx=0;entryDy=0;" parent="1" target="g0bjd9XSqsmkl1bo5QIL-4" edge="1">
          <mxGeometry width="50" height="50" relative="1" as="geometry">
            <mxPoint x="370" y="670" as="sourcePoint" />
            <mxPoint x="830" y="570" as="targetPoint" />
          </mxGeometry>
        </mxCell>
        <mxCell id="g0bjd9XSqsmkl1bo5QIL-29" value="5V" style="edgeLabel;html=1;align=center;verticalAlign=middle;resizable=0;points=[];" parent="g0bjd9XSqsmkl1bo5QIL-28" vertex="1" connectable="0">
          <mxGeometry x="0.2966" y="1" relative="1" as="geometry">
            <mxPoint as="offset" />
          </mxGeometry>
        </mxCell>
        <mxCell id="g0bjd9XSqsmkl1bo5QIL-34" style="edgeStyle=orthogonalEdgeStyle;rounded=0;orthogonalLoop=1;jettySize=auto;html=1;exitX=1;exitY=0.25;exitDx=0;exitDy=0;fillColor=#f8cecc;strokeColor=#b85450;strokeWidth=4;" parent="1" source="g0bjd9XSqsmkl1bo5QIL-33" edge="1">
          <mxGeometry relative="1" as="geometry">
            <mxPoint x="530" y="475" as="targetPoint" />
          </mxGeometry>
        </mxCell>
        <mxCell id="g0bjd9XSqsmkl1bo5QIL-35" value="保压" style="edgeLabel;html=1;align=center;verticalAlign=middle;resizable=0;points=[];fontColor=#FF1E05;" parent="g0bjd9XSqsmkl1bo5QIL-34" vertex="1" connectable="0">
          <mxGeometry x="0.1399" y="-3" relative="1" as="geometry">
            <mxPoint as="offset" />
          </mxGeometry>
        </mxCell>
        <mxCell id="g0bjd9XSqsmkl1bo5QIL-36" style="edgeStyle=orthogonalEdgeStyle;rounded=0;orthogonalLoop=1;jettySize=auto;html=1;exitX=1;exitY=0.75;exitDx=0;exitDy=0;fillColor=#f8cecc;strokeColor=#b85450;strokeWidth=4;" parent="1" source="g0bjd9XSqsmkl1bo5QIL-33" edge="1">
          <mxGeometry relative="1" as="geometry">
            <mxPoint x="750" y="530" as="targetPoint" />
            <Array as="points">
              <mxPoint x="750" y="505" />
            </Array>
          </mxGeometry>
        </mxCell>
        <mxCell id="g0bjd9XSqsmkl1bo5QIL-37" value="保压" style="edgeLabel;html=1;align=center;verticalAlign=middle;resizable=0;points=[];fontColor=#FF1E05;" parent="g0bjd9XSqsmkl1bo5QIL-36" vertex="1" connectable="0">
          <mxGeometry x="-0.7326" relative="1" as="geometry">
            <mxPoint as="offset" />
          </mxGeometry>
        </mxCell>
        <mxCell id="g0bjd9XSqsmkl1bo5QIL-33" value="工作模式判断电路" style="rounded=0;whiteSpace=wrap;html=1;fontColor=#FF1E05;" parent="1" vertex="1">
          <mxGeometry x="320" y="460" width="90" height="60" as="geometry" />
        </mxCell>
        <mxCell id="g0bjd9XSqsmkl1bo5QIL-40" value="" style="endArrow=classic;html=1;rounded=0;entryX=0;entryY=0.25;entryDx=0;entryDy=0;" parent="1" target="g0bjd9XSqsmkl1bo5QIL-33" edge="1">
          <mxGeometry width="50" height="50" relative="1" as="geometry">
            <mxPoint x="190" y="475" as="sourcePoint" />
            <mxPoint x="750" y="530" as="targetPoint" />
          </mxGeometry>
        </mxCell>
        <mxCell id="g0bjd9XSqsmkl1bo5QIL-41" value="人工模式按钮" style="edgeLabel;html=1;align=center;verticalAlign=middle;resizable=0;points=[];fontColor=#FF430A;" parent="g0bjd9XSqsmkl1bo5QIL-40" vertex="1" connectable="0">
          <mxGeometry x="0.2031" y="-1" relative="1" as="geometry">
            <mxPoint as="offset" />
          </mxGeometry>
        </mxCell>
        <mxCell id="g0bjd9XSqsmkl1bo5QIL-43" value="按钮" style="ellipse;whiteSpace=wrap;html=1;fontColor=#FF430A;" parent="1" vertex="1">
          <mxGeometry x="130" y="440" width="60" height="70" as="geometry" />
        </mxCell>
      </root>
    </mxGraphModel>
  </diagram>
  <diagram id="4ldP5AvspZTD4nOcewYG" name="FDR-简化版本-发业主用">
    <mxGraphModel dx="1242" dy="577" grid="1" gridSize="10" guides="1" tooltips="1" connect="1" arrows="1" fold="1" page="1" pageScale="1" pageWidth="827" pageHeight="1169" math="0" shadow="0">
      <root>
        <mxCell id="0" />
        <mxCell id="1" parent="0" />
        <mxCell id="-wKwS-heXNMU_Ianq9Th-7" style="edgeStyle=orthogonalEdgeStyle;rounded=0;orthogonalLoop=1;jettySize=auto;html=1;exitX=0.5;exitY=1;exitDx=0;exitDy=0;entryX=0;entryY=0.5;entryDx=0;entryDy=0;" parent="1" source="avZcrbUl1niI9SoNMKv6-3" target="avZcrbUl1niI9SoNMKv6-7" edge="1">
          <mxGeometry relative="1" as="geometry" />
        </mxCell>
        <mxCell id="-wKwS-heXNMU_Ianq9Th-21" value="CAN Bus" style="edgeLabel;html=1;align=center;verticalAlign=middle;resizable=0;points=[];" parent="-wKwS-heXNMU_Ianq9Th-7" vertex="1" connectable="0">
          <mxGeometry x="-0.4637" y="-1" relative="1" as="geometry">
            <mxPoint as="offset" />
          </mxGeometry>
        </mxCell>
        <mxCell id="avZcrbUl1niI9SoNMKv6-3" value="Virtual Track&lt;br&gt;Detection Camera" style="rounded=0;whiteSpace=wrap;html=1;" parent="1" vertex="1">
          <mxGeometry x="130" y="525" width="120" height="60" as="geometry" />
        </mxCell>
        <mxCell id="-wKwS-heXNMU_Ianq9Th-6" style="edgeStyle=orthogonalEdgeStyle;rounded=0;orthogonalLoop=1;jettySize=auto;html=1;exitX=0.5;exitY=1;exitDx=0;exitDy=0;entryX=0.5;entryY=0;entryDx=0;entryDy=0;startArrow=classic;startFill=1;" parent="1" source="avZcrbUl1niI9SoNMKv6-4" target="avZcrbUl1niI9SoNMKv6-7" edge="1">
          <mxGeometry relative="1" as="geometry" />
        </mxCell>
        <mxCell id="-wKwS-heXNMU_Ianq9Th-22" value="ETH" style="edgeLabel;html=1;align=center;verticalAlign=middle;resizable=0;points=[];" parent="-wKwS-heXNMU_Ianq9Th-6" vertex="1" connectable="0">
          <mxGeometry x="-0.1667" y="-1" relative="1" as="geometry">
            <mxPoint x="-13" as="offset" />
          </mxGeometry>
        </mxCell>
        <mxCell id="avZcrbUl1niI9SoNMKv6-4" value="Lidar&lt;span style=&quot;white-space: pre;&quot;&gt;&#x9;&lt;/span&gt;" style="rounded=0;whiteSpace=wrap;html=1;" parent="1" vertex="1">
          <mxGeometry x="294" y="525" width="120" height="60" as="geometry" />
        </mxCell>
        <mxCell id="-wKwS-heXNMU_Ianq9Th-8" style="edgeStyle=orthogonalEdgeStyle;rounded=0;orthogonalLoop=1;jettySize=auto;html=1;exitX=0.25;exitY=1;exitDx=0;exitDy=0;entryX=1;entryY=0.25;entryDx=0;entryDy=0;" parent="1" source="avZcrbUl1niI9SoNMKv6-5" target="avZcrbUl1niI9SoNMKv6-7" edge="1">
          <mxGeometry relative="1" as="geometry" />
        </mxCell>
        <mxCell id="-wKwS-heXNMU_Ianq9Th-26" value="ETH" style="edgeLabel;html=1;align=center;verticalAlign=middle;resizable=0;points=[];" parent="-wKwS-heXNMU_Ianq9Th-8" vertex="1" connectable="0">
          <mxGeometry x="-0.5772" y="-1" relative="1" as="geometry">
            <mxPoint as="offset" />
          </mxGeometry>
        </mxCell>
        <mxCell id="-wKwS-heXNMU_Ianq9Th-10" style="edgeStyle=orthogonalEdgeStyle;rounded=0;orthogonalLoop=1;jettySize=auto;html=1;exitX=0.75;exitY=1;exitDx=0;exitDy=0;entryX=1;entryY=0.25;entryDx=0;entryDy=0;" parent="1" source="avZcrbUl1niI9SoNMKv6-5" target="QEy54AYLH1P_JWZg5SlO-1" edge="1">
          <mxGeometry relative="1" as="geometry" />
        </mxCell>
        <mxCell id="-wKwS-heXNMU_Ianq9Th-28" value="CAN Bus" style="edgeLabel;html=1;align=center;verticalAlign=middle;resizable=0;points=[];" parent="-wKwS-heXNMU_Ianq9Th-10" vertex="1" connectable="0">
          <mxGeometry x="-0.1976" y="-1" relative="1" as="geometry">
            <mxPoint y="5" as="offset" />
          </mxGeometry>
        </mxCell>
        <mxCell id="avZcrbUl1niI9SoNMKv6-5" value="Integrated Inertial&lt;br&gt;Navigation-1" style="rounded=0;whiteSpace=wrap;html=1;" parent="1" vertex="1">
          <mxGeometry x="460" y="525" width="120" height="60" as="geometry" />
        </mxCell>
        <mxCell id="-wKwS-heXNMU_Ianq9Th-9" style="edgeStyle=orthogonalEdgeStyle;rounded=0;orthogonalLoop=1;jettySize=auto;html=1;exitX=0.25;exitY=1;exitDx=0;exitDy=0;entryX=1;entryY=0.75;entryDx=0;entryDy=0;" parent="1" source="avZcrbUl1niI9SoNMKv6-6" target="avZcrbUl1niI9SoNMKv6-7" edge="1">
          <mxGeometry relative="1" as="geometry" />
        </mxCell>
        <mxCell id="-wKwS-heXNMU_Ianq9Th-27" value="ETH" style="edgeLabel;html=1;align=center;verticalAlign=middle;resizable=0;points=[];" parent="-wKwS-heXNMU_Ianq9Th-9" vertex="1" connectable="0">
          <mxGeometry x="-0.7842" y="-2" relative="1" as="geometry">
            <mxPoint as="offset" />
          </mxGeometry>
        </mxCell>
        <mxCell id="-wKwS-heXNMU_Ianq9Th-12" style="edgeStyle=orthogonalEdgeStyle;rounded=0;orthogonalLoop=1;jettySize=auto;html=1;exitX=0.75;exitY=1;exitDx=0;exitDy=0;entryX=1;entryY=0.5;entryDx=0;entryDy=0;" parent="1" source="avZcrbUl1niI9SoNMKv6-6" target="QEy54AYLH1P_JWZg5SlO-1" edge="1">
          <mxGeometry relative="1" as="geometry" />
        </mxCell>
        <mxCell id="-wKwS-heXNMU_Ianq9Th-29" value="CAN Bus" style="edgeLabel;html=1;align=center;verticalAlign=middle;resizable=0;points=[];" parent="-wKwS-heXNMU_Ianq9Th-12" vertex="1" connectable="0">
          <mxGeometry x="-0.5374" y="1" relative="1" as="geometry">
            <mxPoint y="14" as="offset" />
          </mxGeometry>
        </mxCell>
        <mxCell id="avZcrbUl1niI9SoNMKv6-6" value="Integrated Inertial&lt;br style=&quot;border-color: var(--border-color);&quot;&gt;Navigation-2" style="rounded=0;whiteSpace=wrap;html=1;" parent="1" vertex="1">
          <mxGeometry x="630" y="525" width="120" height="60" as="geometry" />
        </mxCell>
        <mxCell id="-wKwS-heXNMU_Ianq9Th-16" style="edgeStyle=orthogonalEdgeStyle;rounded=0;orthogonalLoop=1;jettySize=auto;html=1;exitX=0.5;exitY=1;exitDx=0;exitDy=0;entryX=0.5;entryY=0;entryDx=0;entryDy=0;startArrow=classic;startFill=1;" parent="1" source="avZcrbUl1niI9SoNMKv6-7" target="QEy54AYLH1P_JWZg5SlO-1" edge="1">
          <mxGeometry relative="1" as="geometry" />
        </mxCell>
        <mxCell id="-wKwS-heXNMU_Ianq9Th-23" value="ETH" style="edgeLabel;html=1;align=center;verticalAlign=middle;resizable=0;points=[];" parent="-wKwS-heXNMU_Ianq9Th-16" vertex="1" connectable="0">
          <mxGeometry x="-0.0937" y="1" relative="1" as="geometry">
            <mxPoint x="-15" as="offset" />
          </mxGeometry>
        </mxCell>
        <mxCell id="avZcrbUl1niI9SoNMKv6-7" value="Data Processor Unit" style="rounded=0;whiteSpace=wrap;html=1;" parent="1" vertex="1">
          <mxGeometry x="294" y="630" width="120" height="60" as="geometry" />
        </mxCell>
        <mxCell id="-wKwS-heXNMU_Ianq9Th-13" style="edgeStyle=orthogonalEdgeStyle;rounded=0;orthogonalLoop=1;jettySize=auto;html=1;exitX=1;exitY=0.75;exitDx=0;exitDy=0;" parent="1" source="QEy54AYLH1P_JWZg5SlO-1" target="-wKwS-heXNMU_Ianq9Th-1" edge="1">
          <mxGeometry relative="1" as="geometry" />
        </mxCell>
        <mxCell id="-wKwS-heXNMU_Ianq9Th-25" value="DO" style="edgeLabel;html=1;align=center;verticalAlign=middle;resizable=0;points=[];" parent="-wKwS-heXNMU_Ianq9Th-13" vertex="1" connectable="0">
          <mxGeometry x="0.0152" y="-1" relative="1" as="geometry">
            <mxPoint as="offset" />
          </mxGeometry>
        </mxCell>
        <mxCell id="-wKwS-heXNMU_Ianq9Th-15" style="edgeStyle=orthogonalEdgeStyle;rounded=0;orthogonalLoop=1;jettySize=auto;html=1;exitX=0.75;exitY=1;exitDx=0;exitDy=0;entryX=0.25;entryY=0;entryDx=0;entryDy=0;startArrow=classic;startFill=1;" parent="1" source="QEy54AYLH1P_JWZg5SlO-1" target="-wKwS-heXNMU_Ianq9Th-4" edge="1">
          <mxGeometry relative="1" as="geometry" />
        </mxCell>
        <mxCell id="-wKwS-heXNMU_Ianq9Th-30" value="CAN Bus" style="edgeLabel;html=1;align=center;verticalAlign=middle;resizable=0;points=[];" parent="-wKwS-heXNMU_Ianq9Th-15" vertex="1" connectable="0">
          <mxGeometry x="-0.0718" y="-1" relative="1" as="geometry">
            <mxPoint as="offset" />
          </mxGeometry>
        </mxCell>
        <mxCell id="-wKwS-heXNMU_Ianq9Th-17" style="edgeStyle=orthogonalEdgeStyle;rounded=0;orthogonalLoop=1;jettySize=auto;html=1;exitX=0.5;exitY=1;exitDx=0;exitDy=0;entryX=0.5;entryY=0;entryDx=0;entryDy=0;startArrow=classic;startFill=1;" parent="1" source="QEy54AYLH1P_JWZg5SlO-1" target="-wKwS-heXNMU_Ianq9Th-2" edge="1">
          <mxGeometry relative="1" as="geometry" />
        </mxCell>
        <mxCell id="-wKwS-heXNMU_Ianq9Th-24" value="ETH" style="edgeLabel;html=1;align=center;verticalAlign=middle;resizable=0;points=[];" parent="-wKwS-heXNMU_Ianq9Th-17" vertex="1" connectable="0">
          <mxGeometry x="-0.25" relative="1" as="geometry">
            <mxPoint x="-14" y="4" as="offset" />
          </mxGeometry>
        </mxCell>
        <mxCell id="-wKwS-heXNMU_Ianq9Th-19" value="CAN Bus&lt;br&gt;/ETH" style="edgeStyle=orthogonalEdgeStyle;rounded=0;orthogonalLoop=1;jettySize=auto;html=1;exitX=0;exitY=0.5;exitDx=0;exitDy=0;startArrow=classic;startFill=1;" parent="1" source="QEy54AYLH1P_JWZg5SlO-1" edge="1">
          <mxGeometry relative="1" as="geometry">
            <mxPoint x="50" y="760" as="targetPoint" />
          </mxGeometry>
        </mxCell>
        <mxCell id="QEy54AYLH1P_JWZg5SlO-1" value="Intelligent Driving&lt;br&gt;Computing Platform" style="rounded=0;whiteSpace=wrap;html=1;" parent="1" vertex="1">
          <mxGeometry x="294" y="730" width="120" height="60" as="geometry" />
        </mxCell>
        <mxCell id="-wKwS-heXNMU_Ianq9Th-1" value="Secondary Brake" style="rounded=0;whiteSpace=wrap;html=1;" parent="1" vertex="1">
          <mxGeometry x="630" y="774" width="120" height="30" as="geometry" />
        </mxCell>
        <mxCell id="-wKwS-heXNMU_Ianq9Th-14" style="edgeStyle=orthogonalEdgeStyle;rounded=0;orthogonalLoop=1;jettySize=auto;html=1;exitX=1;exitY=0.5;exitDx=0;exitDy=0;entryX=0;entryY=0.5;entryDx=0;entryDy=0;startArrow=classic;startFill=1;" parent="1" source="-wKwS-heXNMU_Ianq9Th-2" target="-wKwS-heXNMU_Ianq9Th-4" edge="1">
          <mxGeometry relative="1" as="geometry" />
        </mxCell>
        <mxCell id="-wKwS-heXNMU_Ianq9Th-31" value="CAN Bus" style="edgeLabel;html=1;align=center;verticalAlign=middle;resizable=0;points=[];" parent="-wKwS-heXNMU_Ianq9Th-14" vertex="1" connectable="0">
          <mxGeometry x="-0.0984" relative="1" as="geometry">
            <mxPoint as="offset" />
          </mxGeometry>
        </mxCell>
        <mxCell id="-wKwS-heXNMU_Ianq9Th-18" style="edgeStyle=orthogonalEdgeStyle;rounded=0;orthogonalLoop=1;jettySize=auto;html=1;exitX=0.5;exitY=1;exitDx=0;exitDy=0;entryX=0.5;entryY=0;entryDx=0;entryDy=0;startArrow=classic;startFill=1;" parent="1" source="-wKwS-heXNMU_Ianq9Th-2" target="-wKwS-heXNMU_Ianq9Th-3" edge="1">
          <mxGeometry relative="1" as="geometry" />
        </mxCell>
        <mxCell id="-wKwS-heXNMU_Ianq9Th-33" value="ETH" style="edgeLabel;html=1;align=center;verticalAlign=middle;resizable=0;points=[];" parent="-wKwS-heXNMU_Ianq9Th-18" vertex="1" connectable="0">
          <mxGeometry x="-0.0625" y="-3" relative="1" as="geometry">
            <mxPoint x="-12" as="offset" />
          </mxGeometry>
        </mxCell>
        <mxCell id="-wKwS-heXNMU_Ianq9Th-20" style="edgeStyle=orthogonalEdgeStyle;rounded=0;orthogonalLoop=1;jettySize=auto;html=1;exitX=0;exitY=0.5;exitDx=0;exitDy=0;startArrow=classic;startFill=1;" parent="1" source="-wKwS-heXNMU_Ianq9Th-2" edge="1">
          <mxGeometry relative="1" as="geometry">
            <mxPoint x="50" y="860" as="targetPoint" />
          </mxGeometry>
        </mxCell>
        <mxCell id="-wKwS-heXNMU_Ianq9Th-32" value="CAN Bus&lt;br style=&quot;border-color: var(--border-color);&quot;&gt;/ETH" style="edgeLabel;html=1;align=center;verticalAlign=middle;resizable=0;points=[];" parent="-wKwS-heXNMU_Ianq9Th-20" vertex="1" connectable="0">
          <mxGeometry x="0.0634" y="-2" relative="1" as="geometry">
            <mxPoint x="6" as="offset" />
          </mxGeometry>
        </mxCell>
        <mxCell id="-wKwS-heXNMU_Ianq9Th-2" value="VCMS" style="rounded=0;whiteSpace=wrap;html=1;" parent="1" vertex="1">
          <mxGeometry x="294" y="830" width="120" height="60" as="geometry" />
        </mxCell>
        <mxCell id="-wKwS-heXNMU_Ianq9Th-3" value="S&amp;amp;CS" style="rounded=0;whiteSpace=wrap;html=1;" parent="1" vertex="1">
          <mxGeometry x="294" y="930" width="120" height="60" as="geometry" />
        </mxCell>
        <mxCell id="-wKwS-heXNMU_Ianq9Th-4" value="Steering System" style="rounded=0;whiteSpace=wrap;html=1;" parent="1" vertex="1">
          <mxGeometry x="630" y="845" width="120" height="30" as="geometry" />
        </mxCell>
        <mxCell id="-wKwS-heXNMU_Ianq9Th-5" value="DAS" style="text;html=1;strokeColor=none;fillColor=none;align=center;verticalAlign=middle;whiteSpace=wrap;rounded=0;fontSize=21;fontStyle=1" parent="1" vertex="1">
          <mxGeometry x="400" y="490" width="60" height="30" as="geometry" />
        </mxCell>
      </root>
    </mxGraphModel>
  </diagram>
  <diagram id="5u_sHzqKNdBTE_GQBvPW" name="DAS系统与外部系统关联关系图">
    <mxGraphModel dx="2073" dy="1593" grid="1" gridSize="10" guides="1" tooltips="1" connect="1" arrows="1" fold="1" page="1" pageScale="1" pageWidth="827" pageHeight="1169" math="0" shadow="0">
      <root>
        <mxCell id="0" />
        <mxCell id="1" parent="0" />
        <mxCell id="4IF-wAqoHZgAtcuKYzu8-117" value="&lt;font style=&quot;font-size: 30px;&quot;&gt;地面端&lt;/font&gt;" style="rounded=1;whiteSpace=wrap;html=1;verticalAlign=bottom;" parent="1" vertex="1">
          <mxGeometry x="-290" y="-430" width="360" height="150" as="geometry" />
        </mxCell>
        <mxCell id="4IF-wAqoHZgAtcuKYzu8-116" value="&lt;font style=&quot;font-size: 30px;&quot;&gt;车载端&lt;/font&gt;" style="rounded=1;whiteSpace=wrap;html=1;verticalAlign=top;" parent="1" vertex="1">
          <mxGeometry x="-650" y="-1090" width="1120" height="540" as="geometry" />
        </mxCell>
        <mxCell id="4IF-wAqoHZgAtcuKYzu8-105" value="&lt;font style=&quot;font-size: 22px;&quot;&gt;DAS系统&lt;/font&gt;" style="rounded=0;whiteSpace=wrap;html=1;dashed=1;fontSize=13;align=center;verticalAlign=top;fillColor=#d5e8d4;strokeColor=#82b366;" parent="1" vertex="1">
          <mxGeometry x="-580" y="-1000" width="810" height="180" as="geometry" />
        </mxCell>
        <mxCell id="4IF-wAqoHZgAtcuKYzu8-119" style="edgeStyle=orthogonalEdgeStyle;rounded=0;orthogonalLoop=1;jettySize=auto;html=1;exitX=1;exitY=0.5;exitDx=0;exitDy=0;entryX=0;entryY=0.5;entryDx=0;entryDy=0;startArrow=classic;startFill=1;" parent="1" source="4IF-wAqoHZgAtcuKYzu8-101" target="4IF-wAqoHZgAtcuKYzu8-102" edge="1">
          <mxGeometry relative="1" as="geometry" />
        </mxCell>
        <mxCell id="4IF-wAqoHZgAtcuKYzu8-101" value="智能驾驶子系统" style="rounded=0;whiteSpace=wrap;html=1;fontSize=13;fillColor=#fff2cc;strokeColor=#d6b656;strokeWidth=3;" parent="1" vertex="1">
          <mxGeometry x="-533.5" y="-940" width="120" height="60" as="geometry" />
        </mxCell>
        <mxCell id="4IF-wAqoHZgAtcuKYzu8-118" style="edgeStyle=orthogonalEdgeStyle;rounded=1;orthogonalLoop=1;jettySize=auto;html=1;exitX=0.25;exitY=1;exitDx=0;exitDy=0;entryX=0.5;entryY=0;entryDx=0;entryDy=0;startArrow=classic;startFill=1;strokeColor=#006666;strokeWidth=3;" parent="1" source="4IF-wAqoHZgAtcuKYzu8-102" target="4IF-wAqoHZgAtcuKYzu8-107" edge="1">
          <mxGeometry relative="1" as="geometry">
            <Array as="points">
              <mxPoint x="-210" y="-830" />
              <mxPoint x="-180" y="-830" />
            </Array>
          </mxGeometry>
        </mxCell>
        <mxCell id="4IF-wAqoHZgAtcuKYzu8-120" style="edgeStyle=orthogonalEdgeStyle;rounded=0;orthogonalLoop=1;jettySize=auto;html=1;exitX=1;exitY=0.5;exitDx=0;exitDy=0;entryX=0;entryY=0.5;entryDx=0;entryDy=0;startArrow=classic;startFill=1;strokeColor=#006666;strokeWidth=3;" parent="1" source="4IF-wAqoHZgAtcuKYzu8-102" target="4IF-wAqoHZgAtcuKYzu8-103" edge="1">
          <mxGeometry relative="1" as="geometry" />
        </mxCell>
        <mxCell id="5FCwzxrzBt2mw7ofKvr7-10" style="edgeStyle=orthogonalEdgeStyle;rounded=1;orthogonalLoop=1;jettySize=auto;html=1;exitX=0.75;exitY=1;exitDx=0;exitDy=0;entryX=1;entryY=0.5;entryDx=0;entryDy=0;startArrow=classic;startFill=1;strokeColor=#000000;strokeWidth=1;endArrow=none;endFill=0;" parent="1" source="4IF-wAqoHZgAtcuKYzu8-102" target="4IF-wAqoHZgAtcuKYzu8-115" edge="1">
          <mxGeometry relative="1" as="geometry">
            <Array as="points">
              <mxPoint x="-150" y="-800" />
              <mxPoint x="70" y="-800" />
              <mxPoint x="70" y="-616" />
            </Array>
          </mxGeometry>
        </mxCell>
        <mxCell id="4IF-wAqoHZgAtcuKYzu8-102" value="安全以太网交换机" style="rounded=0;whiteSpace=wrap;html=1;fontSize=13;fillColor=#1ba1e2;strokeColor=#006EAF;strokeWidth=3;fontColor=#ffffff;" parent="1" vertex="1">
          <mxGeometry x="-240" y="-940" width="120" height="60" as="geometry" />
        </mxCell>
        <mxCell id="4IF-wAqoHZgAtcuKYzu8-121" style="edgeStyle=orthogonalEdgeStyle;rounded=1;orthogonalLoop=1;jettySize=auto;html=1;exitX=1;exitY=0.25;exitDx=0;exitDy=0;entryX=0;entryY=0.5;entryDx=0;entryDy=0;strokeColor=#97D077;strokeWidth=3;" parent="1" source="4IF-wAqoHZgAtcuKYzu8-103" target="4IF-wAqoHZgAtcuKYzu8-109" edge="1">
          <mxGeometry relative="1" as="geometry">
            <Array as="points">
              <mxPoint x="250" y="-925" />
              <mxPoint x="250" y="-962" />
            </Array>
          </mxGeometry>
        </mxCell>
        <mxCell id="4IF-wAqoHZgAtcuKYzu8-122" style="edgeStyle=orthogonalEdgeStyle;rounded=1;orthogonalLoop=1;jettySize=auto;html=1;exitX=1;exitY=0.75;exitDx=0;exitDy=0;entryX=0;entryY=0.25;entryDx=0;entryDy=0;strokeColor=#A680B8;strokeWidth=2;startArrow=classic;startFill=1;" parent="1" source="4IF-wAqoHZgAtcuKYzu8-103" target="4IF-wAqoHZgAtcuKYzu8-108" edge="1">
          <mxGeometry relative="1" as="geometry">
            <Array as="points">
              <mxPoint x="250" y="-895" />
              <mxPoint x="250" y="-872" />
            </Array>
          </mxGeometry>
        </mxCell>
        <mxCell id="4IF-wAqoHZgAtcuKYzu8-123" style="edgeStyle=orthogonalEdgeStyle;rounded=1;orthogonalLoop=1;jettySize=auto;html=1;exitX=0.75;exitY=1;exitDx=0;exitDy=0;entryX=0;entryY=0.75;entryDx=0;entryDy=0;strokeColor=#A680B8;strokeWidth=2;startArrow=classic;startFill=1;" parent="1" source="4IF-wAqoHZgAtcuKYzu8-103" target="4IF-wAqoHZgAtcuKYzu8-108" edge="1">
          <mxGeometry relative="1" as="geometry" />
        </mxCell>
        <mxCell id="4IF-wAqoHZgAtcuKYzu8-103" value="安全计算模组" style="rounded=0;whiteSpace=wrap;html=1;fontSize=13;fillColor=#008a00;strokeColor=#005700;strokeWidth=3;fontColor=#ffffff;" parent="1" vertex="1">
          <mxGeometry x="50" y="-940" width="120" height="60" as="geometry" />
        </mxCell>
        <mxCell id="4IF-wAqoHZgAtcuKYzu8-124" style="edgeStyle=orthogonalEdgeStyle;rounded=1;orthogonalLoop=1;jettySize=auto;html=1;exitX=1;exitY=0.25;exitDx=0;exitDy=0;entryX=0.25;entryY=1;entryDx=0;entryDy=0;strokeColor=#A680B8;strokeWidth=2;startArrow=classic;startFill=1;" parent="1" source="4IF-wAqoHZgAtcuKYzu8-106" target="4IF-wAqoHZgAtcuKYzu8-103" edge="1">
          <mxGeometry relative="1" as="geometry">
            <Array as="points">
              <mxPoint x="240" y="-631" />
              <mxPoint x="240" y="-770" />
              <mxPoint x="80" y="-770" />
            </Array>
          </mxGeometry>
        </mxCell>
        <mxCell id="4IF-wAqoHZgAtcuKYzu8-125" style="edgeStyle=orthogonalEdgeStyle;rounded=1;orthogonalLoop=1;jettySize=auto;html=1;exitX=1;exitY=0.75;exitDx=0;exitDy=0;entryX=0.5;entryY=1;entryDx=0;entryDy=0;strokeColor=#A680B8;strokeWidth=2;startArrow=classic;startFill=1;" parent="1" source="4IF-wAqoHZgAtcuKYzu8-106" target="4IF-wAqoHZgAtcuKYzu8-103" edge="1">
          <mxGeometry relative="1" as="geometry">
            <Array as="points">
              <mxPoint x="270" y="-601" />
              <mxPoint x="270" y="-800" />
              <mxPoint x="110" y="-800" />
            </Array>
          </mxGeometry>
        </mxCell>
        <mxCell id="4IF-wAqoHZgAtcuKYzu8-106" value="无轨导向" style="rounded=0;whiteSpace=wrap;html=1;fontSize=13;fillColor=#008a00;fontColor=#ffffff;strokeColor=#005700;" parent="1" vertex="1">
          <mxGeometry x="80" y="-646" width="120" height="60" as="geometry" />
        </mxCell>
        <mxCell id="5FCwzxrzBt2mw7ofKvr7-7" style="edgeStyle=orthogonalEdgeStyle;rounded=1;orthogonalLoop=1;jettySize=auto;html=1;exitX=0.25;exitY=0;exitDx=0;exitDy=0;entryX=0.5;entryY=0;entryDx=0;entryDy=0;startArrow=classic;startFill=1;strokeColor=#006666;strokeWidth=3;" parent="1" source="4IF-wAqoHZgAtcuKYzu8-107" target="4IF-wAqoHZgAtcuKYzu8-126" edge="1">
          <mxGeometry relative="1" as="geometry">
            <Array as="points">
              <mxPoint x="-290" y="-790" />
              <mxPoint x="-520" y="-790" />
            </Array>
          </mxGeometry>
        </mxCell>
        <mxCell id="5FCwzxrzBt2mw7ofKvr7-8" style="edgeStyle=orthogonalEdgeStyle;rounded=1;orthogonalLoop=1;jettySize=auto;html=1;exitX=1;exitY=0.5;exitDx=0;exitDy=0;entryX=0.5;entryY=0;entryDx=0;entryDy=0;startArrow=classic;startFill=1;" parent="1" source="4IF-wAqoHZgAtcuKYzu8-107" target="4IF-wAqoHZgAtcuKYzu8-106" edge="1">
          <mxGeometry relative="1" as="geometry" />
        </mxCell>
        <mxCell id="4IF-wAqoHZgAtcuKYzu8-107" value="整车网络-控制环网" style="rounded=1;whiteSpace=wrap;html=1;fontSize=13;strokeWidth=3;fillColor=#1ba1e2;strokeColor=#006EAF;fontColor=#ffffff;" parent="1" vertex="1">
          <mxGeometry x="-400" y="-766" width="440" height="56" as="geometry" />
        </mxCell>
        <mxCell id="4IF-wAqoHZgAtcuKYzu8-108" value="线控执行器" style="rounded=0;whiteSpace=wrap;html=1;fontSize=13;fillColor=#f8cecc;strokeColor=#b85450;" parent="1" vertex="1">
          <mxGeometry x="290" y="-887.5" width="120" height="60" as="geometry" />
        </mxCell>
        <mxCell id="4IF-wAqoHZgAtcuKYzu8-109" value="应急制动" style="rounded=0;whiteSpace=wrap;html=1;fontSize=13;fillColor=#008a00;fontColor=#ffffff;strokeColor=#005700;" parent="1" vertex="1">
          <mxGeometry x="290" y="-992.5" width="120" height="60" as="geometry" />
        </mxCell>
        <mxCell id="5FCwzxrzBt2mw7ofKvr7-3" style="edgeStyle=orthogonalEdgeStyle;rounded=0;orthogonalLoop=1;jettySize=auto;html=1;exitX=0.5;exitY=1;exitDx=0;exitDy=0;entryX=0.5;entryY=0;entryDx=0;entryDy=0;startArrow=classic;startFill=1;endArrow=classic;endFill=1;dashed=1;" parent="1" target="4IF-wAqoHZgAtcuKYzu8-112" edge="1">
          <mxGeometry relative="1" as="geometry">
            <Array as="points">
              <mxPoint x="-190" y="-460" />
              <mxPoint x="-190" y="-460" />
            </Array>
            <mxPoint x="-190" y="-586" as="sourcePoint" />
          </mxGeometry>
        </mxCell>
        <mxCell id="5FCwzxrzBt2mw7ofKvr7-4" style="edgeStyle=orthogonalEdgeStyle;rounded=0;orthogonalLoop=1;jettySize=auto;html=1;exitX=0.5;exitY=1;exitDx=0;exitDy=0;entryX=0.5;entryY=0;entryDx=0;entryDy=0;dashed=1;startArrow=classic;startFill=1;endArrow=none;endFill=0;" parent="1" source="4IF-wAqoHZgAtcuKYzu8-115" target="4IF-wAqoHZgAtcuKYzu8-113" edge="1">
          <mxGeometry relative="1" as="geometry" />
        </mxCell>
        <mxCell id="5FCwzxrzBt2mw7ofKvr7-9" style="edgeStyle=orthogonalEdgeStyle;rounded=1;orthogonalLoop=1;jettySize=auto;html=1;exitX=0.5;exitY=0;exitDx=0;exitDy=0;entryX=0.25;entryY=1;entryDx=0;entryDy=0;strokeColor=#006666;startArrow=classic;startFill=1;strokeWidth=3;" parent="1" source="rkehPVcoAfaaJUnO9sSw-1" target="4IF-wAqoHZgAtcuKYzu8-107" edge="1">
          <mxGeometry relative="1" as="geometry">
            <mxPoint x="-190" y="-646" as="sourcePoint" />
          </mxGeometry>
        </mxCell>
        <mxCell id="4IF-wAqoHZgAtcuKYzu8-111" value="HMI" style="rounded=0;whiteSpace=wrap;html=1;fontSize=13;fillColor=#fff2cc;strokeColor=#d6b656;" parent="1" vertex="1">
          <mxGeometry x="-415" y="-646" width="120" height="60" as="geometry" />
        </mxCell>
        <mxCell id="4IF-wAqoHZgAtcuKYzu8-112" value="地面信号系统" style="rounded=0;whiteSpace=wrap;html=1;fontSize=12;fillColor=#008a00;strokeColor=#005700;fontColor=#ffffff;" parent="1" vertex="1">
          <mxGeometry x="-250" y="-400" width="120" height="60" as="geometry" />
        </mxCell>
        <mxCell id="4IF-wAqoHZgAtcuKYzu8-113" value="差分服务" style="rounded=0;whiteSpace=wrap;html=1;fontSize=13;fillColor=#fff2cc;fontColor=default;strokeColor=#d6b656;" parent="1" vertex="1">
          <mxGeometry x="-85" y="-400" width="120" height="60" as="geometry" />
        </mxCell>
        <mxCell id="4IF-wAqoHZgAtcuKYzu8-115" value="车载信号-辅助网" style="rounded=0;whiteSpace=wrap;html=1;fillColor=#fff2cc;fontColor=default;strokeColor=#d6b656;fontSize=13;" parent="1" vertex="1">
          <mxGeometry x="-85" y="-646" width="120" height="60" as="geometry" />
        </mxCell>
        <mxCell id="5FCwzxrzBt2mw7ofKvr7-6" style="edgeStyle=orthogonalEdgeStyle;rounded=0;orthogonalLoop=1;jettySize=auto;html=1;exitX=1;exitY=0.5;exitDx=0;exitDy=0;entryX=0;entryY=0.5;entryDx=0;entryDy=0;startArrow=classic;startFill=1;" parent="1" source="4IF-wAqoHZgAtcuKYzu8-126" target="4IF-wAqoHZgAtcuKYzu8-111" edge="1">
          <mxGeometry relative="1" as="geometry" />
        </mxCell>
        <mxCell id="5FCwzxrzBt2mw7ofKvr7-12" style="edgeStyle=orthogonalEdgeStyle;rounded=1;orthogonalLoop=1;jettySize=auto;html=1;exitX=0.5;exitY=1;exitDx=0;exitDy=0;strokeColor=#006666;startArrow=none;startFill=0;strokeWidth=3;" parent="1" source="4IF-wAqoHZgAtcuKYzu8-126" target="5FCwzxrzBt2mw7ofKvr7-11" edge="1">
          <mxGeometry relative="1" as="geometry" />
        </mxCell>
        <mxCell id="4IF-wAqoHZgAtcuKYzu8-126" value="整车网络控制系统" style="rounded=0;whiteSpace=wrap;html=1;fontSize=13;fillColor=#1ba1e2;fontColor=#ffffff;strokeColor=#006EAF;" parent="1" vertex="1">
          <mxGeometry x="-580" y="-734" width="120" height="60" as="geometry" />
        </mxCell>
        <mxCell id="5FCwzxrzBt2mw7ofKvr7-11" value="安全制动" style="rounded=0;whiteSpace=wrap;html=1;fontSize=13;fillColor=#1ba1e2;fontColor=#ffffff;strokeColor=#006EAF;" parent="1" vertex="1">
          <mxGeometry x="-580" y="-646" width="120" height="60" as="geometry" />
        </mxCell>
        <mxCell id="B9j6WMZAgdq2tRqXphT_-1" value="" style="group" parent="1" vertex="1" connectable="0">
          <mxGeometry x="340" y="-490" width="120" height="190" as="geometry" />
        </mxCell>
        <mxCell id="B9j6WMZAgdq2tRqXphT_-2" value="SIL3/4" style="rounded=0;whiteSpace=wrap;html=1;fillColor=#008a00;strokeColor=#005700;fontSize=21;fontColor=#ffffff;" parent="B9j6WMZAgdq2tRqXphT_-1" vertex="1">
          <mxGeometry y="40" width="120" height="30" as="geometry" />
        </mxCell>
        <mxCell id="B9j6WMZAgdq2tRqXphT_-3" value="&lt;font style=&quot;font-size: 21px;&quot;&gt;图例&lt;/font&gt;" style="text;html=1;strokeColor=none;fillColor=none;align=center;verticalAlign=middle;whiteSpace=wrap;rounded=0;" parent="B9j6WMZAgdq2tRqXphT_-1" vertex="1">
          <mxGeometry x="30" width="60" height="30" as="geometry" />
        </mxCell>
        <mxCell id="B9j6WMZAgdq2tRqXphT_-4" value="SIL2" style="rounded=0;whiteSpace=wrap;html=1;fillColor=#1ba1e2;strokeColor=#006EAF;fontSize=21;fontColor=#ffffff;" parent="B9j6WMZAgdq2tRqXphT_-1" vertex="1">
          <mxGeometry y="80" width="120" height="30" as="geometry" />
        </mxCell>
        <mxCell id="B9j6WMZAgdq2tRqXphT_-5" value="SIL0" style="rounded=0;whiteSpace=wrap;html=1;fillColor=#f8cecc;strokeColor=#b85450;fontSize=21;" parent="B9j6WMZAgdq2tRqXphT_-1" vertex="1">
          <mxGeometry y="120" width="120" height="30" as="geometry" />
        </mxCell>
        <mxCell id="B9j6WMZAgdq2tRqXphT_-6" value="安全无关" style="rounded=0;whiteSpace=wrap;html=1;fillColor=#fff2cc;strokeColor=#d6b656;fontSize=21;" parent="B9j6WMZAgdq2tRqXphT_-1" vertex="1">
          <mxGeometry y="160" width="120" height="30" as="geometry" />
        </mxCell>
        <mxCell id="rkehPVcoAfaaJUnO9sSw-1" value="车载信号-安全网" style="rounded=0;whiteSpace=wrap;html=1;fillColor=#008a00;fontColor=#ffffff;strokeColor=#005700;" parent="1" vertex="1">
          <mxGeometry x="-250" y="-646" width="120" height="60" as="geometry" />
        </mxCell>
        <mxCell id="ivg4AKRCxPDNt3aYdW22-2" style="edgeStyle=orthogonalEdgeStyle;rounded=0;orthogonalLoop=1;jettySize=auto;html=1;exitX=0.5;exitY=1;exitDx=0;exitDy=0;entryX=0.25;entryY=0;entryDx=0;entryDy=0;" parent="1" source="ivg4AKRCxPDNt3aYdW22-1" target="4IF-wAqoHZgAtcuKYzu8-103" edge="1">
          <mxGeometry relative="1" as="geometry" />
        </mxCell>
        <mxCell id="ivg4AKRCxPDNt3aYdW22-1" value="循迹&lt;br&gt;按钮" style="ellipse;whiteSpace=wrap;html=1;aspect=fixed;fillColor=#1ba1e2;fontColor=#ffffff;strokeColor=#006EAF;" parent="1" vertex="1">
          <mxGeometry x="60" y="-1060" width="40" height="40" as="geometry" />
        </mxCell>
      </root>
    </mxGraphModel>
  </diagram>
  <diagram name="DAS系统与外部系统通信链路图 高鑫鹏" id="WvgsV70jPdcutIEzbD2q">
    <mxGraphModel dx="2293" dy="1668" grid="1" gridSize="10" guides="1" tooltips="1" connect="1" arrows="1" fold="1" page="1" pageScale="1" pageWidth="827" pageHeight="1169" math="0" shadow="0">
      <root>
        <mxCell id="MlJxGsaLasZlbV2H4Bvv-0" />
        <mxCell id="MlJxGsaLasZlbV2H4Bvv-1" parent="MlJxGsaLasZlbV2H4Bvv-0" />
        <mxCell id="MlJxGsaLasZlbV2H4Bvv-2" value="&lt;font style=&quot;font-size: 30px;&quot;&gt;地面端&lt;/font&gt;" style="rounded=1;whiteSpace=wrap;html=1;verticalAlign=bottom;" parent="MlJxGsaLasZlbV2H4Bvv-1" vertex="1">
          <mxGeometry x="-290" y="-430" width="360" height="150" as="geometry" />
        </mxCell>
        <mxCell id="MlJxGsaLasZlbV2H4Bvv-3" value="&lt;font style=&quot;font-size: 30px;&quot;&gt;车载端&lt;/font&gt;" style="rounded=1;whiteSpace=wrap;html=1;verticalAlign=top;" parent="MlJxGsaLasZlbV2H4Bvv-1" vertex="1">
          <mxGeometry x="-650" y="-1090" width="1120" height="540" as="geometry" />
        </mxCell>
        <mxCell id="MlJxGsaLasZlbV2H4Bvv-4" value="&lt;font style=&quot;font-size: 22px;&quot;&gt;DAS系统&lt;/font&gt;" style="rounded=0;whiteSpace=wrap;html=1;dashed=1;fontSize=13;align=center;verticalAlign=top;fillColor=#d5e8d4;strokeColor=#82b366;" parent="MlJxGsaLasZlbV2H4Bvv-1" vertex="1">
          <mxGeometry x="-570" y="-1000" width="810" height="180" as="geometry" />
        </mxCell>
        <mxCell id="MlJxGsaLasZlbV2H4Bvv-5" style="edgeStyle=orthogonalEdgeStyle;rounded=0;orthogonalLoop=1;jettySize=auto;html=1;exitX=1;exitY=0.5;exitDx=0;exitDy=0;entryX=0;entryY=0.5;entryDx=0;entryDy=0;startArrow=classic;startFill=1;" parent="MlJxGsaLasZlbV2H4Bvv-1" source="MlJxGsaLasZlbV2H4Bvv-6" target="MlJxGsaLasZlbV2H4Bvv-10" edge="1">
          <mxGeometry relative="1" as="geometry" />
        </mxCell>
        <mxCell id="rlPZ7zRzE9RTY3Ps-6JD-0" style="edgeStyle=orthogonalEdgeStyle;rounded=0;orthogonalLoop=1;jettySize=auto;html=1;exitX=0.25;exitY=1;exitDx=0;exitDy=0;entryX=0.25;entryY=0;entryDx=0;entryDy=0;" parent="MlJxGsaLasZlbV2H4Bvv-1" source="MlJxGsaLasZlbV2H4Bvv-6" target="MlJxGsaLasZlbV2H4Bvv-32" edge="1">
          <mxGeometry relative="1" as="geometry" />
        </mxCell>
        <mxCell id="rlPZ7zRzE9RTY3Ps-6JD-1" value="传统&lt;br&gt;TRDP" style="edgeLabel;html=1;align=center;verticalAlign=middle;resizable=0;points=[];" parent="rlPZ7zRzE9RTY3Ps-6JD-0" vertex="1" connectable="0">
          <mxGeometry x="0.0742" y="2" relative="1" as="geometry">
            <mxPoint x="-1" as="offset" />
          </mxGeometry>
        </mxCell>
        <mxCell id="MlJxGsaLasZlbV2H4Bvv-6" value="智能驾驶机箱" style="rounded=0;whiteSpace=wrap;html=1;fontSize=13;fillColor=#fff2cc;strokeColor=#d6b656;strokeWidth=3;" parent="MlJxGsaLasZlbV2H4Bvv-1" vertex="1">
          <mxGeometry x="-533.5" y="-940" width="120" height="60" as="geometry" />
        </mxCell>
        <mxCell id="MlJxGsaLasZlbV2H4Bvv-7" style="edgeStyle=orthogonalEdgeStyle;rounded=1;orthogonalLoop=1;jettySize=auto;html=1;exitX=0.25;exitY=1;exitDx=0;exitDy=0;entryX=0.5;entryY=0;entryDx=0;entryDy=0;startArrow=classic;startFill=1;strokeColor=#006666;strokeWidth=3;" parent="MlJxGsaLasZlbV2H4Bvv-1" source="MlJxGsaLasZlbV2H4Bvv-10" target="MlJxGsaLasZlbV2H4Bvv-20" edge="1">
          <mxGeometry relative="1" as="geometry">
            <Array as="points">
              <mxPoint x="-210" y="-830" />
              <mxPoint x="-180" y="-830" />
            </Array>
          </mxGeometry>
        </mxCell>
        <mxCell id="MlJxGsaLasZlbV2H4Bvv-8" style="edgeStyle=orthogonalEdgeStyle;rounded=0;orthogonalLoop=1;jettySize=auto;html=1;exitX=1;exitY=0.5;exitDx=0;exitDy=0;entryX=0;entryY=0.5;entryDx=0;entryDy=0;startArrow=classic;startFill=1;strokeColor=#006666;strokeWidth=3;" parent="MlJxGsaLasZlbV2H4Bvv-1" source="MlJxGsaLasZlbV2H4Bvv-10" target="MlJxGsaLasZlbV2H4Bvv-14" edge="1">
          <mxGeometry relative="1" as="geometry" />
        </mxCell>
        <mxCell id="MlJxGsaLasZlbV2H4Bvv-9" style="edgeStyle=orthogonalEdgeStyle;rounded=1;orthogonalLoop=1;jettySize=auto;html=1;exitX=0.75;exitY=1;exitDx=0;exitDy=0;entryX=1;entryY=0.5;entryDx=0;entryDy=0;startArrow=classic;startFill=1;strokeColor=#000000;strokeWidth=1;endArrow=none;endFill=0;" parent="MlJxGsaLasZlbV2H4Bvv-1" source="MlJxGsaLasZlbV2H4Bvv-10" target="MlJxGsaLasZlbV2H4Bvv-29" edge="1">
          <mxGeometry relative="1" as="geometry">
            <Array as="points">
              <mxPoint x="-150" y="-800" />
              <mxPoint x="70" y="-800" />
              <mxPoint x="70" y="-616" />
            </Array>
          </mxGeometry>
        </mxCell>
        <mxCell id="MlJxGsaLasZlbV2H4Bvv-10" value="安全以太网交换机" style="rounded=0;whiteSpace=wrap;html=1;fontSize=13;fillColor=#1ba1e2;strokeColor=#006EAF;strokeWidth=3;fontColor=#ffffff;" parent="MlJxGsaLasZlbV2H4Bvv-1" vertex="1">
          <mxGeometry x="-240" y="-940" width="120" height="60" as="geometry" />
        </mxCell>
        <mxCell id="MlJxGsaLasZlbV2H4Bvv-11" style="edgeStyle=orthogonalEdgeStyle;rounded=1;orthogonalLoop=1;jettySize=auto;html=1;exitX=1;exitY=0.25;exitDx=0;exitDy=0;entryX=0;entryY=0.5;entryDx=0;entryDy=0;strokeColor=#97D077;strokeWidth=3;" parent="MlJxGsaLasZlbV2H4Bvv-1" source="MlJxGsaLasZlbV2H4Bvv-14" target="MlJxGsaLasZlbV2H4Bvv-22" edge="1">
          <mxGeometry relative="1" as="geometry">
            <Array as="points">
              <mxPoint x="250" y="-925" />
              <mxPoint x="250" y="-962" />
            </Array>
          </mxGeometry>
        </mxCell>
        <mxCell id="MlJxGsaLasZlbV2H4Bvv-12" style="edgeStyle=orthogonalEdgeStyle;rounded=1;orthogonalLoop=1;jettySize=auto;html=1;exitX=1;exitY=0.75;exitDx=0;exitDy=0;entryX=0;entryY=0.25;entryDx=0;entryDy=0;strokeColor=#A680B8;strokeWidth=2;startArrow=classic;startFill=1;" parent="MlJxGsaLasZlbV2H4Bvv-1" source="MlJxGsaLasZlbV2H4Bvv-14" target="MlJxGsaLasZlbV2H4Bvv-21" edge="1">
          <mxGeometry relative="1" as="geometry">
            <Array as="points">
              <mxPoint x="250" y="-895" />
              <mxPoint x="250" y="-872" />
            </Array>
          </mxGeometry>
        </mxCell>
        <mxCell id="MlJxGsaLasZlbV2H4Bvv-13" style="edgeStyle=orthogonalEdgeStyle;rounded=1;orthogonalLoop=1;jettySize=auto;html=1;exitX=0.75;exitY=1;exitDx=0;exitDy=0;entryX=0;entryY=0.75;entryDx=0;entryDy=0;strokeColor=#A680B8;strokeWidth=2;startArrow=classic;startFill=1;" parent="MlJxGsaLasZlbV2H4Bvv-1" source="MlJxGsaLasZlbV2H4Bvv-14" target="MlJxGsaLasZlbV2H4Bvv-21" edge="1">
          <mxGeometry relative="1" as="geometry" />
        </mxCell>
        <mxCell id="MlJxGsaLasZlbV2H4Bvv-14" value="安全计算模组" style="rounded=0;whiteSpace=wrap;html=1;fontSize=13;fillColor=#008a00;strokeColor=#005700;strokeWidth=3;fontColor=#ffffff;" parent="MlJxGsaLasZlbV2H4Bvv-1" vertex="1">
          <mxGeometry x="50" y="-940" width="120" height="60" as="geometry" />
        </mxCell>
        <mxCell id="MlJxGsaLasZlbV2H4Bvv-15" style="edgeStyle=orthogonalEdgeStyle;rounded=1;orthogonalLoop=1;jettySize=auto;html=1;exitX=1;exitY=0.25;exitDx=0;exitDy=0;entryX=0.25;entryY=1;entryDx=0;entryDy=0;strokeColor=#A680B8;strokeWidth=2;startArrow=classic;startFill=1;" parent="MlJxGsaLasZlbV2H4Bvv-1" source="MlJxGsaLasZlbV2H4Bvv-17" target="MlJxGsaLasZlbV2H4Bvv-14" edge="1">
          <mxGeometry relative="1" as="geometry">
            <Array as="points">
              <mxPoint x="240" y="-631" />
              <mxPoint x="240" y="-770" />
              <mxPoint x="80" y="-770" />
            </Array>
          </mxGeometry>
        </mxCell>
        <mxCell id="MlJxGsaLasZlbV2H4Bvv-16" style="edgeStyle=orthogonalEdgeStyle;rounded=1;orthogonalLoop=1;jettySize=auto;html=1;exitX=1;exitY=0.75;exitDx=0;exitDy=0;entryX=0.5;entryY=1;entryDx=0;entryDy=0;strokeColor=#A680B8;strokeWidth=2;startArrow=classic;startFill=1;" parent="MlJxGsaLasZlbV2H4Bvv-1" source="MlJxGsaLasZlbV2H4Bvv-17" target="MlJxGsaLasZlbV2H4Bvv-14" edge="1">
          <mxGeometry relative="1" as="geometry">
            <Array as="points">
              <mxPoint x="270" y="-601" />
              <mxPoint x="270" y="-800" />
              <mxPoint x="110" y="-800" />
            </Array>
          </mxGeometry>
        </mxCell>
        <mxCell id="MlJxGsaLasZlbV2H4Bvv-17" value="无轨导向" style="rounded=0;whiteSpace=wrap;html=1;fontSize=13;fillColor=#008a00;fontColor=#ffffff;strokeColor=#005700;" parent="MlJxGsaLasZlbV2H4Bvv-1" vertex="1">
          <mxGeometry x="80" y="-646" width="120" height="60" as="geometry" />
        </mxCell>
        <mxCell id="MlJxGsaLasZlbV2H4Bvv-18" style="edgeStyle=orthogonalEdgeStyle;rounded=1;orthogonalLoop=1;jettySize=auto;html=1;exitX=0.25;exitY=0;exitDx=0;exitDy=0;entryX=0.5;entryY=0;entryDx=0;entryDy=0;startArrow=classic;startFill=1;strokeColor=#006666;strokeWidth=3;" parent="MlJxGsaLasZlbV2H4Bvv-1" source="MlJxGsaLasZlbV2H4Bvv-20" target="MlJxGsaLasZlbV2H4Bvv-32" edge="1">
          <mxGeometry relative="1" as="geometry">
            <Array as="points">
              <mxPoint x="-290" y="-790" />
              <mxPoint x="-520" y="-790" />
            </Array>
          </mxGeometry>
        </mxCell>
        <mxCell id="MlJxGsaLasZlbV2H4Bvv-19" style="edgeStyle=orthogonalEdgeStyle;rounded=1;orthogonalLoop=1;jettySize=auto;html=1;exitX=1;exitY=0.5;exitDx=0;exitDy=0;entryX=0.5;entryY=0;entryDx=0;entryDy=0;startArrow=classic;startFill=1;" parent="MlJxGsaLasZlbV2H4Bvv-1" source="MlJxGsaLasZlbV2H4Bvv-20" target="MlJxGsaLasZlbV2H4Bvv-17" edge="1">
          <mxGeometry relative="1" as="geometry" />
        </mxCell>
        <mxCell id="MlJxGsaLasZlbV2H4Bvv-20" value="整车网络-控制环网" style="rounded=1;whiteSpace=wrap;html=1;fontSize=13;strokeWidth=3;fillColor=#1ba1e2;strokeColor=#006EAF;fontColor=#ffffff;" parent="MlJxGsaLasZlbV2H4Bvv-1" vertex="1">
          <mxGeometry x="-400" y="-766" width="440" height="56" as="geometry" />
        </mxCell>
        <mxCell id="MlJxGsaLasZlbV2H4Bvv-21" value="线控执行器" style="rounded=0;whiteSpace=wrap;html=1;fontSize=13;fillColor=#f8cecc;strokeColor=#b85450;" parent="MlJxGsaLasZlbV2H4Bvv-1" vertex="1">
          <mxGeometry x="290" y="-887.5" width="120" height="60" as="geometry" />
        </mxCell>
        <mxCell id="MlJxGsaLasZlbV2H4Bvv-22" value="应急制动" style="rounded=0;whiteSpace=wrap;html=1;fontSize=13;fillColor=#008a00;fontColor=#ffffff;strokeColor=#005700;" parent="MlJxGsaLasZlbV2H4Bvv-1" vertex="1">
          <mxGeometry x="290" y="-992.5" width="120" height="60" as="geometry" />
        </mxCell>
        <mxCell id="MlJxGsaLasZlbV2H4Bvv-23" style="edgeStyle=orthogonalEdgeStyle;rounded=0;orthogonalLoop=1;jettySize=auto;html=1;exitX=0.5;exitY=1;exitDx=0;exitDy=0;entryX=0.5;entryY=0;entryDx=0;entryDy=0;startArrow=classic;startFill=1;endArrow=classic;endFill=1;dashed=1;" parent="MlJxGsaLasZlbV2H4Bvv-1" target="MlJxGsaLasZlbV2H4Bvv-27" edge="1">
          <mxGeometry relative="1" as="geometry">
            <Array as="points">
              <mxPoint x="-190" y="-460" />
              <mxPoint x="-190" y="-460" />
            </Array>
            <mxPoint x="-190" y="-586" as="sourcePoint" />
          </mxGeometry>
        </mxCell>
        <mxCell id="MlJxGsaLasZlbV2H4Bvv-24" style="edgeStyle=orthogonalEdgeStyle;rounded=0;orthogonalLoop=1;jettySize=auto;html=1;exitX=0.5;exitY=1;exitDx=0;exitDy=0;entryX=0.5;entryY=0;entryDx=0;entryDy=0;dashed=1;startArrow=classic;startFill=1;endArrow=none;endFill=0;" parent="MlJxGsaLasZlbV2H4Bvv-1" source="MlJxGsaLasZlbV2H4Bvv-29" target="MlJxGsaLasZlbV2H4Bvv-28" edge="1">
          <mxGeometry relative="1" as="geometry" />
        </mxCell>
        <mxCell id="MlJxGsaLasZlbV2H4Bvv-25" style="edgeStyle=orthogonalEdgeStyle;rounded=1;orthogonalLoop=1;jettySize=auto;html=1;exitX=0.5;exitY=0;exitDx=0;exitDy=0;entryX=0.25;entryY=1;entryDx=0;entryDy=0;strokeColor=#006666;startArrow=classic;startFill=1;strokeWidth=3;" parent="MlJxGsaLasZlbV2H4Bvv-1" source="MlJxGsaLasZlbV2H4Bvv-40" target="MlJxGsaLasZlbV2H4Bvv-20" edge="1">
          <mxGeometry relative="1" as="geometry">
            <mxPoint x="-190" y="-646" as="sourcePoint" />
          </mxGeometry>
        </mxCell>
        <mxCell id="MlJxGsaLasZlbV2H4Bvv-26" value="HMI" style="rounded=0;whiteSpace=wrap;html=1;fontSize=13;fillColor=#fff2cc;strokeColor=#d6b656;" parent="MlJxGsaLasZlbV2H4Bvv-1" vertex="1">
          <mxGeometry x="-415" y="-646" width="120" height="60" as="geometry" />
        </mxCell>
        <mxCell id="MlJxGsaLasZlbV2H4Bvv-27" value="地面信号系统" style="rounded=0;whiteSpace=wrap;html=1;fontSize=12;fillColor=#008a00;strokeColor=#005700;fontColor=#ffffff;" parent="MlJxGsaLasZlbV2H4Bvv-1" vertex="1">
          <mxGeometry x="-250" y="-400" width="120" height="60" as="geometry" />
        </mxCell>
        <mxCell id="MlJxGsaLasZlbV2H4Bvv-28" value="差分服务" style="rounded=0;whiteSpace=wrap;html=1;fontSize=13;fillColor=#fff2cc;fontColor=default;strokeColor=#d6b656;" parent="MlJxGsaLasZlbV2H4Bvv-1" vertex="1">
          <mxGeometry x="-85" y="-400" width="120" height="60" as="geometry" />
        </mxCell>
        <mxCell id="MlJxGsaLasZlbV2H4Bvv-29" value="车载信号-辅助网" style="rounded=0;whiteSpace=wrap;html=1;fillColor=#fff2cc;fontColor=default;strokeColor=#d6b656;fontSize=13;" parent="MlJxGsaLasZlbV2H4Bvv-1" vertex="1">
          <mxGeometry x="-85" y="-646" width="120" height="60" as="geometry" />
        </mxCell>
        <mxCell id="MlJxGsaLasZlbV2H4Bvv-30" style="edgeStyle=orthogonalEdgeStyle;rounded=0;orthogonalLoop=1;jettySize=auto;html=1;exitX=1;exitY=0.5;exitDx=0;exitDy=0;entryX=0;entryY=0.5;entryDx=0;entryDy=0;startArrow=classic;startFill=1;" parent="MlJxGsaLasZlbV2H4Bvv-1" source="MlJxGsaLasZlbV2H4Bvv-32" target="MlJxGsaLasZlbV2H4Bvv-26" edge="1">
          <mxGeometry relative="1" as="geometry" />
        </mxCell>
        <mxCell id="MlJxGsaLasZlbV2H4Bvv-31" style="edgeStyle=orthogonalEdgeStyle;rounded=1;orthogonalLoop=1;jettySize=auto;html=1;exitX=0.5;exitY=1;exitDx=0;exitDy=0;strokeColor=#006666;startArrow=none;startFill=0;strokeWidth=3;" parent="MlJxGsaLasZlbV2H4Bvv-1" source="MlJxGsaLasZlbV2H4Bvv-32" target="MlJxGsaLasZlbV2H4Bvv-33" edge="1">
          <mxGeometry relative="1" as="geometry" />
        </mxCell>
        <mxCell id="MlJxGsaLasZlbV2H4Bvv-32" value="整车网络" style="rounded=0;whiteSpace=wrap;html=1;fontSize=13;fillColor=#1ba1e2;fontColor=#ffffff;strokeColor=#006EAF;" parent="MlJxGsaLasZlbV2H4Bvv-1" vertex="1">
          <mxGeometry x="-580" y="-734" width="120" height="60" as="geometry" />
        </mxCell>
        <mxCell id="MlJxGsaLasZlbV2H4Bvv-33" value="安全制动" style="rounded=0;whiteSpace=wrap;html=1;fontSize=13;fillColor=#1ba1e2;fontColor=#ffffff;strokeColor=#006EAF;" parent="MlJxGsaLasZlbV2H4Bvv-1" vertex="1">
          <mxGeometry x="-580" y="-646" width="120" height="60" as="geometry" />
        </mxCell>
        <mxCell id="MlJxGsaLasZlbV2H4Bvv-34" value="" style="group" parent="MlJxGsaLasZlbV2H4Bvv-1" vertex="1" connectable="0">
          <mxGeometry x="340" y="-490" width="120" height="190" as="geometry" />
        </mxCell>
        <mxCell id="MlJxGsaLasZlbV2H4Bvv-35" value="SIL3/4" style="rounded=0;whiteSpace=wrap;html=1;fillColor=#008a00;strokeColor=#005700;fontSize=21;fontColor=#ffffff;" parent="MlJxGsaLasZlbV2H4Bvv-34" vertex="1">
          <mxGeometry y="40" width="120" height="30" as="geometry" />
        </mxCell>
        <mxCell id="MlJxGsaLasZlbV2H4Bvv-36" value="&lt;font style=&quot;font-size: 21px;&quot;&gt;图例&lt;/font&gt;" style="text;html=1;strokeColor=none;fillColor=none;align=center;verticalAlign=middle;whiteSpace=wrap;rounded=0;" parent="MlJxGsaLasZlbV2H4Bvv-34" vertex="1">
          <mxGeometry x="30" width="60" height="30" as="geometry" />
        </mxCell>
        <mxCell id="MlJxGsaLasZlbV2H4Bvv-37" value="SIL2" style="rounded=0;whiteSpace=wrap;html=1;fillColor=#1ba1e2;strokeColor=#006EAF;fontSize=21;fontColor=#ffffff;" parent="MlJxGsaLasZlbV2H4Bvv-34" vertex="1">
          <mxGeometry y="80" width="120" height="30" as="geometry" />
        </mxCell>
        <mxCell id="MlJxGsaLasZlbV2H4Bvv-38" value="SIL0" style="rounded=0;whiteSpace=wrap;html=1;fillColor=#f8cecc;strokeColor=#b85450;fontSize=21;" parent="MlJxGsaLasZlbV2H4Bvv-34" vertex="1">
          <mxGeometry y="120" width="120" height="30" as="geometry" />
        </mxCell>
        <mxCell id="MlJxGsaLasZlbV2H4Bvv-39" value="安全无关" style="rounded=0;whiteSpace=wrap;html=1;fillColor=#fff2cc;strokeColor=#d6b656;fontSize=21;" parent="MlJxGsaLasZlbV2H4Bvv-34" vertex="1">
          <mxGeometry y="160" width="120" height="30" as="geometry" />
        </mxCell>
        <mxCell id="MlJxGsaLasZlbV2H4Bvv-40" value="车载信号-安全网" style="rounded=0;whiteSpace=wrap;html=1;fillColor=#008a00;fontColor=#ffffff;strokeColor=#005700;" parent="MlJxGsaLasZlbV2H4Bvv-1" vertex="1">
          <mxGeometry x="-250" y="-646" width="120" height="60" as="geometry" />
        </mxCell>
        <mxCell id="MlJxGsaLasZlbV2H4Bvv-41" style="edgeStyle=orthogonalEdgeStyle;rounded=0;orthogonalLoop=1;jettySize=auto;html=1;exitX=0.5;exitY=1;exitDx=0;exitDy=0;entryX=0.25;entryY=0;entryDx=0;entryDy=0;" parent="MlJxGsaLasZlbV2H4Bvv-1" source="MlJxGsaLasZlbV2H4Bvv-42" target="MlJxGsaLasZlbV2H4Bvv-14" edge="1">
          <mxGeometry relative="1" as="geometry" />
        </mxCell>
        <mxCell id="MlJxGsaLasZlbV2H4Bvv-42" value="循迹&lt;br&gt;按钮" style="ellipse;whiteSpace=wrap;html=1;aspect=fixed;fillColor=#1ba1e2;fontColor=#ffffff;strokeColor=#006EAF;" parent="MlJxGsaLasZlbV2H4Bvv-1" vertex="1">
          <mxGeometry x="60" y="-1060" width="40" height="40" as="geometry" />
        </mxCell>
        <mxCell id="rlPZ7zRzE9RTY3Ps-6JD-2" style="edgeStyle=orthogonalEdgeStyle;rounded=1;orthogonalLoop=1;jettySize=auto;html=1;exitX=1;exitY=0.75;exitDx=0;exitDy=0;strokeColor=#A680B8;strokeWidth=2;startArrow=classic;startFill=1;" parent="MlJxGsaLasZlbV2H4Bvv-1" edge="1">
          <mxGeometry relative="1" as="geometry">
            <Array as="points">
              <mxPoint x="630" y="-440" />
            </Array>
            <mxPoint x="510" y="-440" as="sourcePoint" />
            <mxPoint x="630" y="-440" as="targetPoint" />
          </mxGeometry>
        </mxCell>
        <mxCell id="rlPZ7zRzE9RTY3Ps-6JD-3" value="&lt;font style=&quot;font-size: 18px;&quot;&gt;CAN&lt;/font&gt;" style="edgeLabel;html=1;align=center;verticalAlign=middle;resizable=0;points=[];" parent="rlPZ7zRzE9RTY3Ps-6JD-2" vertex="1" connectable="0">
          <mxGeometry x="-0.1917" y="2" relative="1" as="geometry">
            <mxPoint x="-9" y="-7" as="offset" />
          </mxGeometry>
        </mxCell>
        <mxCell id="rlPZ7zRzE9RTY3Ps-6JD-4" value="&lt;font style=&quot;font-size: 21px;&quot;&gt;图例&lt;/font&gt;" style="text;html=1;strokeColor=none;fillColor=none;align=center;verticalAlign=middle;whiteSpace=wrap;rounded=0;" parent="MlJxGsaLasZlbV2H4Bvv-1" vertex="1">
          <mxGeometry x="520" y="-490" width="60" height="30" as="geometry" />
        </mxCell>
        <mxCell id="rlPZ7zRzE9RTY3Ps-6JD-5" style="edgeStyle=orthogonalEdgeStyle;rounded=0;orthogonalLoop=1;jettySize=auto;html=1;" parent="MlJxGsaLasZlbV2H4Bvv-1" edge="1">
          <mxGeometry relative="1" as="geometry">
            <mxPoint x="610" y="-400" as="sourcePoint" />
            <mxPoint x="510" y="-400" as="targetPoint" />
            <Array as="points">
              <mxPoint x="510" y="-400" />
            </Array>
          </mxGeometry>
        </mxCell>
        <mxCell id="rlPZ7zRzE9RTY3Ps-6JD-6" value="&lt;font style=&quot;font-size: 18px;&quot;&gt;传统&lt;br&gt;TRDP&lt;/font&gt;" style="edgeLabel;html=1;align=center;verticalAlign=middle;resizable=0;points=[];" parent="rlPZ7zRzE9RTY3Ps-6JD-5" vertex="1" connectable="0">
          <mxGeometry x="0.0742" y="2" relative="1" as="geometry">
            <mxPoint x="-6" y="-2" as="offset" />
          </mxGeometry>
        </mxCell>
        <mxCell id="rlPZ7zRzE9RTY3Ps-6JD-7" style="edgeStyle=orthogonalEdgeStyle;rounded=0;orthogonalLoop=1;jettySize=auto;html=1;exitX=1;exitY=0.5;exitDx=0;exitDy=0;entryX=0;entryY=0.5;entryDx=0;entryDy=0;startArrow=classic;startFill=1;strokeColor=#006666;strokeWidth=3;" parent="MlJxGsaLasZlbV2H4Bvv-1" edge="1">
          <mxGeometry relative="1" as="geometry">
            <mxPoint x="480" y="-355.5" as="sourcePoint" />
            <mxPoint x="650" y="-355.5" as="targetPoint" />
          </mxGeometry>
        </mxCell>
        <mxCell id="rlPZ7zRzE9RTY3Ps-6JD-8" value="&lt;font style=&quot;font-size: 18px;&quot;&gt;安全以太网协议&lt;br&gt;UDP-ISSIP-1&lt;/font&gt;" style="edgeLabel;html=1;align=center;verticalAlign=middle;resizable=0;points=[];" parent="rlPZ7zRzE9RTY3Ps-6JD-7" vertex="1" connectable="0">
          <mxGeometry x="0.1565" y="-2" relative="1" as="geometry">
            <mxPoint x="-18" y="-1" as="offset" />
          </mxGeometry>
        </mxCell>
      </root>
    </mxGraphModel>
  </diagram>
</mxfile>
